<svg xmlns="http://www.w3.org/2000/svg" xmlns:xlink="http://www.w3.org/1999/xlink" version="1.1" x="0px" y="0px" viewBox="0 0 512 640" enable-background="new 0 0 512 512" xml:space="preserve"><g><g><g><path fill="#15ace4" d="M260,496c-29.248,0-56.314-25.205-76.213-70.973C164.579,380.848,154,322.24,154,260     c0-62.24,10.579-120.848,29.787-165.027C203.686,49.206,230.752,24,260,24c29.248,0,56.314,25.206,76.213,70.973     C355.422,139.152,366,197.76,366,260c0,62.24-10.578,120.848-29.787,165.027C316.314,470.795,289.248,496,260,496z M260,36     c-23.824,0-47.591,23.239-65.208,63.758C176.225,142.461,166,199.37,166,260c0,60.631,10.225,117.539,28.792,160.242     C212.409,460.761,236.176,484,260,484c23.824,0,47.591-23.239,65.208-63.758C343.775,377.539,354,320.631,354,260     c0-60.63-10.225-117.539-28.792-160.242C307.591,59.239,283.824,36,260,36z"/></g><g><path fill="#15ace4" d="M260,496c-3.313,0-6-2.687-6-6V30c0-3.313,2.687-6,6-6s6,2.687,6,6v460C266,493.313,263.313,496,260,496z"/></g><g><path fill="#15ace4" d="M490,266H30c-3.313,0-6-2.687-6-6s2.687-6,6-6h460c3.313,0,6,2.687,6,6S493.313,266,490,266z"/></g><g><path fill="#15ace4" d="M437.943,411.723c-0.887,0-1.782-0.196-2.622-0.604C388.766,388.472,326.502,376,260,376     c-66.503,0-128.767,12.472-175.321,35.118c-2.498,1.216-5.503,0.557-7.265-1.592C42.97,367.515,24,314.411,24,260     c0-54.411,18.97-107.513,53.414-149.526c1.762-2.147,4.768-2.806,7.265-1.591C131.232,131.528,193.496,144,260,144     c66.503,0,128.767-12.472,175.321-35.118c2.499-1.216,5.503-0.557,7.265,1.591C477.03,152.486,496,205.589,496,260     c0,54.412-18.97,107.515-53.414,149.526C441.417,410.953,439.698,411.723,437.943,411.723z M260,364     c66.254,0,128.598,12.146,176.236,34.267C467.071,358.991,484,310.082,484,260c0-50.081-16.929-98.991-47.764-138.267     C388.6,143.854,326.256,156,260,156c-66.257,0-128.6-12.146-176.236-34.267C52.929,161.01,36,209.919,36,260     c0,50.081,16.929,98.991,47.764,138.267C131.401,376.146,193.745,364,260,364z"/></g><g><path fill="#15ace4" d="M260,156c-68.287,0-132.415-12.901-180.57-36.327c-1.651-0.803-2.844-2.318-3.236-4.112     c-0.393-1.793,0.057-3.668,1.221-5.088C122.471,55.519,189.021,24,260,24c70.979,0,137.529,31.519,182.586,86.474     c1.164,1.42,1.614,3.294,1.222,5.088c-0.394,1.794-1.586,3.309-3.236,4.112C392.414,143.099,328.285,156,260,156z M91.71,112.172     C137.41,132.734,196.788,144,260,144c63.212,0,122.589-11.266,168.29-31.828C385.681,63.664,324.783,36,260,36     C195.216,36,134.319,63.664,91.71,112.172z"/></g><g><path fill="#15ace4" d="M260,496c-70.979,0-137.529-31.519-182.586-86.474c-1.164-1.419-1.614-3.294-1.221-5.088     c0.393-1.793,1.585-3.309,3.236-4.111C127.587,376.901,191.715,364,260,364c68.284,0,132.412,12.901,180.571,36.327     c1.65,0.803,2.843,2.318,3.236,4.111c0.393,1.794-0.058,3.669-1.222,5.088C397.528,464.481,330.979,496,260,496z M91.71,407.828     C134.319,456.337,195.216,484,260,484c64.783,0,125.68-27.663,168.29-76.171C382.587,387.266,323.21,376,260,376     C196.789,376,137.412,387.266,91.71,407.828z"/></g></g></g></svg>
