<svg id="svg" version="1.1" width="2000" height="2000" xmlns="http://www.w3.org/2000/svg" xmlns:xlink="http://www.w3.org/1999/xlink" ><g id="svgg"><path id="path0" d="M176.400 34.800 C 176.235 34.907,175.886 34.995,175.626 34.997 C 175.227 35.000,175.191 35.048,175.399 35.299 C 175.536 35.463,175.604 35.763,175.551 35.965 C 175.499 36.166,175.578 36.499,175.728 36.704 C 175.877 36.909,176.000 37.278,176.000 37.524 C 176.000 37.770,176.157 38.128,176.349 38.320 C 176.541 38.512,176.790 38.856,176.904 39.084 C 177.017 39.313,177.299 39.527,177.530 39.561 C 177.761 39.594,178.157 39.842,178.410 40.111 C 178.739 40.461,179.083 40.600,179.618 40.600 C 180.035 40.600,180.407 40.711,180.457 40.850 C 180.529 41.047,180.635 41.049,180.959 40.858 C 181.289 40.663,181.488 40.675,181.970 40.915 C 182.301 41.080,183.196 41.244,183.960 41.280 C 184.724 41.316,185.472 41.421,185.622 41.514 C 185.772 41.606,186.256 41.705,186.697 41.732 C 187.139 41.760,188.212 41.967,189.082 42.191 C 189.952 42.416,191.236 42.600,191.935 42.600 C 192.634 42.600,193.362 42.683,193.553 42.784 C 194.200 43.127,196.136 43.821,196.319 43.776 C 196.418 43.751,196.725 43.837,197.000 43.967 C 197.275 44.097,198.175 44.288,199.000 44.391 C 200.966 44.635,203.276 45.128,204.067 45.473 C 204.415 45.624,204.880 45.759,205.100 45.771 C 205.684 45.804,206.584 46.046,210.073 47.105 C 210.608 47.267,211.210 47.400,211.411 47.400 C 211.612 47.400,211.832 47.490,211.900 47.600 C 211.968 47.710,212.221 47.803,212.462 47.807 C 212.703 47.810,213.395 47.997,214.000 48.221 C 214.605 48.445,215.609 48.710,216.231 48.809 C 217.181 48.960,219.226 49.652,220.900 50.388 C 221.249 50.542,221.898 50.797,222.200 50.899 C 222.465 50.990,223.544 51.428,223.900 51.591 C 224.801 52.001,228.528 53.201,228.902 53.201 C 229.122 53.200,229.713 53.418,230.214 53.685 C 230.714 53.951,231.663 54.309,232.321 54.480 C 233.413 54.763,234.324 55.115,235.247 55.613 C 235.438 55.716,235.708 55.803,235.847 55.807 C 235.986 55.811,236.460 55.987,236.900 56.200 C 237.340 56.413,237.840 56.589,238.010 56.593 C 238.181 56.597,238.406 56.672,238.510 56.760 C 238.615 56.848,239.240 57.127,239.900 57.381 C 240.560 57.634,241.384 57.967,241.730 58.121 C 242.077 58.274,242.495 58.400,242.659 58.400 C 242.823 58.400,243.006 58.528,243.066 58.684 C 243.130 58.851,243.336 58.927,243.562 58.868 C 243.936 58.770,244.557 59.002,247.100 60.191 C 249.103 61.127,249.670 61.352,250.400 61.500 C 250.785 61.578,251.370 61.763,251.700 61.910 C 252.569 62.297,258.125 64.187,259.300 64.495 C 260.305 64.758,260.760 64.903,261.500 65.194 C 261.974 65.380,263.578 65.738,264.700 65.908 C 265.140 65.974,265.680 66.105,265.900 66.198 C 266.948 66.641,267.682 66.772,268.552 66.669 C 269.156 66.598,269.914 66.679,270.641 66.890 C 271.277 67.076,272.426 67.217,273.241 67.208 C 274.043 67.201,275.330 67.196,276.100 67.198 C 276.870 67.200,278.220 67.109,279.100 66.995 C 279.980 66.881,281.139 66.747,281.675 66.698 C 282.212 66.648,282.774 66.504,282.925 66.379 C 283.113 66.223,283.200 66.219,283.200 66.366 C 283.200 66.652,285.005 66.113,285.229 65.760 C 285.362 65.550,285.394 65.552,285.397 65.772 C 285.399 65.970,285.549 66.004,285.950 65.897 C 286.252 65.817,286.806 65.724,287.179 65.690 C 287.553 65.656,287.914 65.539,287.982 65.429 C 288.050 65.319,288.240 65.236,288.403 65.246 C 289.291 65.297,289.584 65.192,289.460 64.868 C 289.351 64.585,289.432 64.556,290.016 64.673 C 290.449 64.760,290.918 64.708,291.299 64.532 C 293.007 63.741,293.502 63.472,293.787 63.177 C 293.959 62.999,294.539 62.806,295.075 62.748 C 295.611 62.691,296.127 62.521,296.222 62.372 C 296.316 62.222,296.397 62.190,296.400 62.300 C 296.403 62.410,296.474 62.393,296.557 62.263 C 296.729 61.992,298.488 61.200,298.917 61.200 C 299.072 61.200,299.200 61.110,299.200 61.000 C 299.200 60.890,299.425 60.800,299.700 60.800 C 299.975 60.800,300.200 60.704,300.200 60.587 C 300.200 60.462,300.372 60.428,300.614 60.504 C 300.928 60.604,301.055 60.534,301.137 60.218 C 301.247 59.797,301.800 59.621,301.800 60.007 C 301.800 60.138,301.966 60.123,302.250 59.967 C 302.498 59.831,302.880 59.691,303.100 59.656 C 303.320 59.621,303.593 59.468,303.708 59.316 C 303.940 59.007,304.787 58.842,305.111 59.044 C 305.379 59.211,307.050 58.843,307.212 58.581 C 307.402 58.273,309.184 58.809,309.058 59.136 C 308.980 59.340,309.286 59.400,310.392 59.400 C 312.022 59.400,312.593 59.620,312.616 60.257 C 312.624 60.501,312.677 60.588,312.732 60.450 C 312.856 60.145,313.400 60.116,313.400 60.414 C 313.400 60.685,313.906 61.200,314.172 61.200 C 314.283 61.200,314.429 61.378,314.498 61.595 C 314.567 61.812,314.832 62.154,315.087 62.354 C 315.342 62.554,315.614 63.007,315.691 63.359 C 315.768 63.712,315.915 64.000,316.016 64.000 C 316.117 64.000,316.200 64.180,316.200 64.400 C 316.200 64.620,316.110 64.800,316.000 64.800 C 315.890 64.800,315.800 64.890,315.800 65.000 C 315.800 65.110,315.980 65.200,316.200 65.200 C 316.422 65.200,316.600 65.333,316.600 65.500 C 316.600 65.665,316.510 65.800,316.400 65.800 C 316.290 65.800,316.200 65.890,316.200 66.000 C 316.200 66.110,316.380 66.200,316.600 66.200 C 316.952 66.200,317.000 66.333,317.000 67.300 C 317.000 67.905,317.082 68.400,317.181 68.400 C 317.281 68.400,317.427 69.255,317.505 70.300 C 317.583 71.345,317.727 72.200,317.824 72.200 C 317.921 72.200,318.000 72.555,318.000 72.988 C 318.000 73.422,318.081 73.827,318.181 73.888 C 318.440 74.048,318.463 81.200,318.204 81.200 C 318.090 81.200,318.000 81.685,318.000 82.300 C 318.000 82.905,317.926 83.400,317.835 83.400 C 317.600 83.400,317.186 85.810,317.328 86.350 C 317.399 86.619,317.357 86.800,317.223 86.800 C 317.100 86.800,317.000 86.973,317.000 87.183 C 317.000 87.394,316.888 87.612,316.750 87.668 C 316.555 87.747,316.560 87.812,316.771 87.959 C 316.978 88.105,316.990 88.245,316.821 88.561 C 316.699 88.788,316.600 89.152,316.600 89.370 C 316.600 89.588,316.533 89.797,316.450 89.833 C 316.297 89.901,315.200 92.004,315.200 92.228 C 315.200 92.296,315.048 92.700,314.863 93.126 C 314.678 93.552,314.547 94.013,314.572 94.150 C 314.597 94.288,314.524 94.400,314.409 94.400 C 314.294 94.400,314.200 94.533,314.200 94.695 C 314.200 94.858,314.020 95.285,313.801 95.645 C 313.581 96.005,313.401 96.489,313.401 96.719 C 313.400 96.949,313.213 97.307,312.984 97.514 C 312.681 97.789,312.598 98.041,312.679 98.445 C 312.762 98.860,312.712 99.000,312.482 99.000 C 312.269 99.000,312.211 99.119,312.295 99.383 C 312.362 99.594,312.323 99.824,312.208 99.895 C 312.094 99.966,312.000 100.268,312.000 100.567 C 312.000 100.866,311.851 101.324,311.669 101.584 C 311.487 101.844,311.265 102.449,311.175 102.928 C 311.085 103.408,310.830 104.047,310.608 104.350 C 310.386 104.652,310.181 105.237,310.152 105.650 C 310.123 106.062,310.033 106.399,309.950 106.400 C 309.868 106.400,309.800 106.671,309.800 107.003 C 309.800 107.589,309.476 108.372,309.128 108.625 C 309.034 108.694,309.019 109.122,309.096 109.575 C 309.206 110.227,309.174 110.400,308.945 110.400 C 308.738 110.400,308.655 110.637,308.655 111.221 C 308.655 111.673,308.548 112.109,308.417 112.190 C 308.286 112.271,308.198 112.418,308.221 112.518 C 308.244 112.618,308.216 112.835,308.157 113.000 C 307.440 115.029,307.263 116.237,307.078 120.400 C 307.022 121.665,306.953 123.015,306.925 123.400 C 306.897 123.785,306.952 124.393,307.047 124.751 C 307.259 125.553,307.394 126.408,307.506 127.662 C 307.553 128.191,307.660 128.731,307.744 128.862 C 307.828 128.993,307.908 129.280,307.922 129.500 C 308.113 132.637,308.281 133.447,309.292 136.100 C 309.585 136.870,309.833 137.748,309.843 138.050 C 309.853 138.353,309.942 138.600,310.042 138.600 C 310.142 138.600,310.172 138.683,310.110 138.784 C 309.998 138.965,310.771 140.588,311.462 141.624 C 311.654 141.912,311.856 142.494,311.910 142.917 C 311.964 143.341,312.221 143.915,312.479 144.194 C 312.738 144.472,312.909 144.811,312.859 144.947 C 312.809 145.083,312.956 145.457,313.184 145.778 C 313.413 146.099,313.600 146.499,313.600 146.666 C 313.600 146.834,313.915 147.575,314.300 148.314 C 314.685 149.053,315.000 149.769,315.000 149.907 C 315.000 150.045,315.135 150.209,315.300 150.272 C 315.465 150.336,315.600 150.564,315.600 150.779 C 315.600 150.995,315.731 151.302,315.890 151.462 C 316.050 151.622,316.139 151.794,316.088 151.845 C 316.037 151.896,316.220 152.269,316.495 152.674 C 316.770 153.079,317.056 153.656,317.129 153.955 C 317.203 154.255,317.430 154.646,317.632 154.823 C 317.834 155.001,318.000 155.286,318.000 155.455 C 318.000 155.624,318.217 156.199,318.481 156.732 C 318.746 157.264,319.081 158.127,319.225 158.650 C 319.369 159.173,319.558 159.600,319.644 159.600 C 319.730 159.600,319.800 159.730,319.800 159.889 C 319.800 160.047,320.003 160.519,320.250 160.937 C 320.805 161.874,321.193 162.950,321.197 163.562 C 321.199 163.818,321.289 163.969,321.400 163.900 C 321.510 163.832,321.600 163.923,321.600 164.102 C 321.600 164.417,322.548 165.833,322.850 165.967 C 322.933 166.003,323.000 166.206,323.000 166.417 C 323.000 166.631,323.138 166.800,323.312 166.800 C 323.483 166.800,323.569 166.889,323.501 166.998 C 323.431 167.111,323.512 167.144,323.691 167.076 C 324.370 166.815,324.084 159.523,323.379 159.087 C 323.280 159.026,323.200 158.800,323.200 158.585 C 323.200 158.370,323.117 158.038,323.015 157.847 C 322.848 157.534,322.574 156.858,322.510 156.600 C 322.454 156.376,321.713 154.893,321.610 154.800 C 321.549 154.745,321.382 154.471,321.238 154.191 C 321.026 153.779,317.931 149.670,316.672 148.129 C 316.155 147.498,315.000 145.629,315.000 145.426 C 315.000 145.320,314.929 145.203,314.842 145.167 C 314.755 145.130,314.360 144.425,313.964 143.600 C 312.885 141.354,312.600 140.671,312.600 140.332 C 312.600 140.162,312.510 139.968,312.400 139.900 C 312.290 139.832,312.200 139.562,312.200 139.300 C 312.200 139.038,312.110 138.768,312.000 138.700 C 311.890 138.632,311.800 138.372,311.800 138.122 C 311.800 137.871,311.733 137.599,311.650 137.517 C 311.568 137.435,311.384 136.813,311.243 136.134 C 311.101 135.455,310.893 134.495,310.780 134.000 C 310.667 133.505,310.530 132.740,310.476 132.300 C 310.422 131.860,310.298 131.320,310.200 131.100 C 309.574 129.682,309.598 119.472,310.229 119.082 C 310.323 119.024,310.400 118.672,310.400 118.300 C 310.400 117.928,310.480 117.574,310.578 117.514 C 310.676 117.453,310.803 117.110,310.860 116.752 C 311.084 115.352,311.339 114.600,312.279 112.580 C 312.566 111.964,312.800 111.357,312.800 111.230 C 312.800 111.104,312.890 111.000,313.000 111.000 C 313.110 111.000,313.200 110.820,313.200 110.600 C 313.200 110.380,313.290 110.200,313.400 110.200 C 313.510 110.200,313.600 110.096,313.600 109.969 C 313.600 108.367,319.915 101.200,326.700 95.102 C 333.062 89.384,336.583 85.426,337.331 83.150 C 337.395 82.958,337.526 82.800,337.623 82.800 C 337.720 82.800,337.800 82.664,337.800 82.497 C 337.800 82.331,337.879 82.038,337.977 81.847 C 338.701 80.423,339.049 79.105,338.968 78.089 C 338.929 77.600,338.979 77.200,339.079 77.200 C 339.500 77.200,338.913 71.809,338.376 70.753 C 338.279 70.562,338.200 70.224,338.200 70.003 C 338.200 69.781,338.110 69.600,338.000 69.600 C 337.890 69.600,337.800 69.425,337.800 69.212 C 337.800 68.998,337.710 68.768,337.600 68.700 C 337.490 68.632,337.400 68.447,337.400 68.290 C 337.400 67.882,336.736 66.400,336.553 66.400 C 336.469 66.400,336.400 66.220,336.400 66.000 C 336.400 65.780,336.310 65.600,336.200 65.600 C 336.090 65.600,336.000 65.503,336.000 65.384 C 336.000 64.954,332.855 60.295,330.948 57.900 C 329.637 56.253,325.942 52.704,325.031 52.217 C 324.811 52.099,324.504 51.875,324.348 51.720 C 323.012 50.384,319.053 48.618,317.367 48.607 C 316.853 48.603,316.400 48.501,316.360 48.380 C 316.256 48.068,310.461 48.059,310.150 48.370 C 310.023 48.497,309.570 48.600,309.143 48.600 C 308.278 48.600,305.737 49.215,305.633 49.450 C 305.597 49.532,305.397 49.600,305.189 49.600 C 304.982 49.600,304.492 49.780,304.100 50.000 C 303.708 50.220,303.247 50.400,303.074 50.400 C 302.585 50.400,301.111 51.076,293.800 54.655 C 290.995 56.028,288.205 57.376,287.600 57.652 C 286.267 58.258,284.546 58.990,283.550 59.373 C 283.303 59.469,282.875 59.645,282.600 59.766 C 282.325 59.886,281.605 60.130,281.000 60.307 C 280.395 60.484,279.744 60.712,279.553 60.814 C 279.362 60.916,278.985 61.000,278.715 61.000 C 278.445 61.000,278.174 61.080,278.114 61.178 C 278.053 61.276,277.710 61.408,277.352 61.471 C 276.993 61.534,275.890 61.742,274.900 61.933 C 270.755 62.733,261.476 62.284,259.353 61.181 C 259.162 61.081,258.868 61.000,258.700 61.000 C 258.532 61.000,258.238 60.918,258.047 60.818 C 257.856 60.717,257.250 60.485,256.700 60.301 C 256.150 60.117,255.160 59.712,254.500 59.400 C 253.840 59.088,252.535 58.475,251.600 58.037 C 250.665 57.599,248.865 56.750,247.600 56.151 C 246.335 55.552,245.007 54.936,244.650 54.782 C 244.293 54.628,244.000 54.434,244.000 54.351 C 244.000 54.268,243.894 54.200,243.764 54.200 C 243.634 54.200,242.576 53.740,241.414 53.178 C 240.251 52.616,238.445 51.753,237.400 51.260 C 236.355 50.767,234.970 50.102,234.322 49.782 C 233.674 49.462,233.065 49.200,232.968 49.200 C 232.871 49.200,231.859 48.750,230.719 48.200 C 229.579 47.650,228.558 47.200,228.451 47.200 C 228.344 47.200,227.726 46.939,227.078 46.620 C 226.016 46.097,225.039 45.665,223.900 45.215 C 223.680 45.128,223.109 44.864,222.631 44.628 C 222.153 44.393,221.672 44.200,221.561 44.200 C 221.362 44.200,220.222 43.736,219.553 43.383 C 219.362 43.282,219.069 43.200,218.903 43.200 C 218.736 43.200,218.600 43.110,218.600 43.000 C 218.600 42.890,218.438 42.800,218.240 42.800 C 218.042 42.800,217.794 42.726,217.690 42.635 C 217.585 42.545,216.938 42.297,216.250 42.085 C 215.563 41.874,215.000 41.633,215.000 41.550 C 215.000 41.468,214.819 41.400,214.597 41.400 C 214.376 41.400,214.038 41.318,213.847 41.218 C 213.656 41.117,213.050 40.885,212.500 40.702 C 211.438 40.348,210.719 40.065,210.153 39.777 C 209.962 39.679,209.630 39.600,209.415 39.600 C 209.200 39.600,208.971 39.515,208.907 39.412 C 208.843 39.308,208.387 39.163,207.893 39.088 C 207.399 39.014,206.946 38.874,206.886 38.777 C 206.826 38.680,206.562 38.600,206.300 38.600 C 206.038 38.600,205.768 38.510,205.700 38.400 C 205.632 38.290,205.400 38.200,205.185 38.200 C 204.970 38.200,204.638 38.117,204.447 38.017 C 204.256 37.916,203.560 37.688,202.900 37.510 C 202.240 37.332,201.424 37.100,201.086 36.993 C 200.748 36.887,200.230 36.800,199.936 36.800 C 199.641 36.800,199.400 36.710,199.400 36.600 C 199.400 36.490,199.090 36.400,198.712 36.400 C 198.333 36.400,197.974 36.319,197.913 36.220 C 197.852 36.122,197.171 35.977,196.400 35.900 C 195.629 35.823,194.948 35.678,194.887 35.580 C 194.826 35.481,194.427 35.400,194.000 35.400 C 193.573 35.400,193.168 35.310,193.100 35.200 C 193.032 35.090,192.447 35.000,191.800 35.000 C 191.153 35.000,190.568 34.910,190.500 34.800 C 190.335 34.534,176.812 34.534,176.400 34.800 M95.900 101.148 C 95.680 101.189,95.275 101.297,95.000 101.388 C 94.725 101.479,94.095 101.674,93.600 101.821 C 92.651 102.103,90.822 103.065,90.000 103.714 C 89.014 104.493,86.899 106.764,86.900 107.044 C 86.900 107.122,86.763 107.347,86.597 107.544 C 86.174 108.040,85.200 110.073,85.200 110.458 C 85.200 110.633,85.110 110.832,85.000 110.900 C 84.890 110.968,84.800 111.333,84.800 111.712 C 84.800 112.090,84.720 112.400,84.622 112.400 C 84.414 112.400,84.214 113.394,84.069 115.150 C 84.012 115.838,83.883 116.400,83.783 116.400 C 83.551 116.400,83.703 122.667,83.974 124.300 C 84.218 125.767,84.484 127.062,84.917 128.900 C 85.098 129.670,85.291 130.593,85.345 130.952 C 85.400 131.310,85.524 131.653,85.622 131.714 C 85.720 131.774,85.800 132.088,85.800 132.412 C 85.800 132.735,85.880 133.000,85.978 133.000 C 86.076 133.000,86.206 133.292,86.267 133.650 C 86.530 135.189,86.911 136.779,87.050 136.917 C 87.133 136.999,87.200 137.349,87.200 137.693 C 87.200 138.038,87.281 138.406,87.380 138.510 C 87.478 138.615,87.608 139.060,87.668 139.500 C 87.728 139.940,87.869 140.840,87.982 141.500 C 88.507 144.576,88.652 148.083,88.352 150.489 C 88.014 153.197,87.939 153.614,87.774 153.716 C 87.678 153.775,87.600 154.021,87.600 154.263 C 87.600 155.268,84.644 162.000,84.203 162.000 C 84.117 162.000,83.994 162.158,83.929 162.350 C 83.814 162.692,83.400 163.401,83.199 163.600 C 83.143 163.655,82.835 164.060,82.513 164.500 C 81.282 166.184,78.030 169.636,76.418 170.970 C 75.932 171.371,75.347 171.884,75.118 172.109 C 74.444 172.769,70.604 175.660,69.300 176.490 C 68.640 176.910,68.055 177.310,68.000 177.378 C 67.945 177.447,67.554 177.683,67.131 177.902 C 66.707 178.121,66.122 178.519,65.831 178.787 C 65.539 179.055,65.255 179.269,65.200 179.264 C 64.987 179.243,64.200 179.672,64.200 179.809 C 64.200 179.888,64.020 180.000,63.800 180.058 C 63.334 180.180,63.260 180.533,63.700 180.533 C 63.865 180.533,64.000 180.467,64.000 180.386 C 64.000 180.305,64.248 180.150,64.550 180.040 C 64.853 179.931,65.272 179.771,65.483 179.686 C 65.752 179.578,65.823 179.601,65.721 179.766 C 65.641 179.895,65.672 180.000,65.788 180.000 C 65.905 180.000,66.000 179.910,66.000 179.800 C 66.000 179.690,66.180 179.600,66.400 179.600 C 66.620 179.600,66.800 179.510,66.800 179.400 C 66.800 179.290,67.018 179.200,67.283 179.200 C 67.549 179.200,67.812 179.088,67.868 178.950 C 67.943 178.766,68.013 178.760,68.135 178.929 C 68.226 179.055,68.568 179.114,68.900 179.060 C 69.230 179.006,69.703 178.962,69.950 178.960 C 70.227 178.959,70.400 178.835,70.400 178.639 C 70.400 178.398,70.456 178.376,70.631 178.551 C 70.806 178.726,70.998 178.686,71.418 178.387 C 71.724 178.169,72.047 178.011,72.137 178.035 C 72.434 178.115,73.200 177.777,73.200 177.565 C 73.200 177.448,73.400 177.407,73.658 177.472 C 73.938 177.542,74.371 177.432,74.770 177.189 C 75.130 176.970,75.514 176.847,75.623 176.914 C 75.975 177.132,76.769 176.812,76.900 176.400 C 76.970 176.180,77.169 176.000,77.343 176.000 C 77.517 176.000,77.973 175.678,78.355 175.284 C 78.738 174.890,79.242 174.532,79.476 174.489 C 79.709 174.445,80.098 174.183,80.340 173.905 C 80.583 173.627,80.898 173.403,81.040 173.406 C 81.199 173.410,81.150 173.526,80.915 173.704 C 80.703 173.865,80.590 174.056,80.663 174.130 C 80.737 174.204,80.966 174.070,81.172 173.832 C 81.378 173.594,81.649 173.400,81.773 173.400 C 81.898 173.400,82.000 173.265,82.000 173.100 C 82.000 172.900,82.200 172.800,82.600 172.800 C 82.930 172.800,83.200 172.732,83.200 172.648 C 83.200 172.217,84.262 171.400,84.822 171.400 C 85.336 171.400,85.408 171.340,85.300 171.000 C 85.227 170.771,85.264 170.600,85.387 170.600 C 85.504 170.600,85.600 170.395,85.600 170.144 C 85.600 169.893,85.780 169.559,86.000 169.400 C 86.220 169.241,86.400 168.896,86.400 168.633 C 86.400 168.263,86.485 168.176,86.775 168.251 C 87.064 168.327,87.127 168.263,87.050 167.970 C 86.989 167.738,87.116 167.446,87.375 167.221 C 87.609 167.019,87.800 166.751,87.800 166.627 C 87.800 166.502,87.890 166.400,88.000 166.400 C 88.110 166.400,88.200 166.220,88.200 166.000 C 88.200 165.780,88.280 165.600,88.378 165.600 C 88.476 165.600,88.613 165.375,88.682 165.100 C 88.751 164.825,88.896 164.600,89.004 164.600 C 89.112 164.600,89.200 164.425,89.200 164.212 C 89.200 163.998,89.290 163.768,89.400 163.700 C 89.510 163.632,89.600 163.402,89.600 163.188 C 89.600 162.975,89.673 162.800,89.762 162.800 C 89.962 162.800,90.519 161.522,90.698 160.652 C 90.771 160.296,90.914 159.953,91.015 159.890 C 91.117 159.828,91.200 159.541,91.200 159.254 C 91.200 158.967,91.338 158.579,91.508 158.392 C 91.679 158.203,91.834 157.618,91.858 157.076 C 91.881 156.539,92.018 155.975,92.163 155.823 C 92.340 155.636,92.360 155.480,92.223 155.343 C 92.086 155.206,92.120 154.948,92.327 154.547 C 92.496 154.220,92.590 153.784,92.536 153.577 C 92.482 153.369,92.519 153.200,92.619 153.200 C 92.718 153.200,92.800 152.925,92.800 152.588 C 92.800 152.231,92.717 152.028,92.600 152.100 C 92.490 152.168,92.400 152.128,92.400 152.012 C 92.400 151.895,92.490 151.800,92.600 151.800 C 92.710 151.800,92.806 151.282,92.814 150.650 C 92.824 149.823,92.876 149.612,93.000 149.900 C 93.095 150.120,93.178 150.182,93.186 150.037 C 93.194 149.892,93.107 149.600,92.993 149.387 C 92.853 149.125,92.852 149.000,92.991 149.000 C 93.103 149.000,93.182 148.843,93.166 148.650 C 93.064 147.431,93.221 145.921,93.422 146.200 C 93.594 146.439,93.607 146.419,93.486 146.100 C 93.403 145.880,93.327 145.449,93.317 145.143 C 93.308 144.836,93.165 144.500,93.000 144.396 C 92.738 144.230,92.741 144.206,93.021 144.203 C 93.293 144.200,93.338 143.940,93.312 142.513 C 93.295 141.586,93.335 140.860,93.401 140.901 C 93.537 140.984,93.491 139.875,93.311 138.726 C 93.239 138.261,93.282 137.842,93.420 137.676 C 93.587 137.475,93.588 137.400,93.424 137.400 C 93.276 137.400,93.200 136.828,93.200 135.717 C 93.200 134.557,93.122 134.002,92.950 133.932 C 92.761 133.855,92.773 133.774,93.000 133.600 C 93.227 133.426,93.239 133.345,93.050 133.268 C 92.880 133.199,92.800 132.663,92.800 131.583 C 92.800 130.300,92.742 130.000,92.496 130.000 C 92.272 130.000,92.225 129.869,92.318 129.500 C 92.395 129.192,92.358 129.000,92.222 129.000 C 91.917 129.000,91.941 128.261,92.250 128.117 C 92.450 128.023,92.450 127.977,92.250 127.883 C 92.081 127.805,92.000 127.257,92.000 126.198 C 92.000 125.070,91.916 124.544,91.700 124.329 C 91.338 123.967,91.242 115.000,91.600 115.000 C 91.710 115.000,91.800 114.595,91.800 114.100 C 91.800 113.333,91.741 113.200,91.400 113.200 C 90.881 113.200,90.891 112.964,91.424 112.631 C 91.775 112.412,91.830 112.231,91.743 111.583 C 91.685 111.152,91.719 110.800,91.819 110.800 C 91.919 110.800,92.000 110.395,92.000 109.900 C 92.000 109.405,92.090 109.000,92.200 109.000 C 92.310 109.000,92.400 108.820,92.400 108.600 C 92.400 108.380,92.580 108.020,92.800 107.800 C 93.255 107.345,93.318 106.888,92.950 106.717 C 92.750 106.623,92.750 106.577,92.950 106.483 C 93.088 106.419,93.200 106.252,93.200 106.111 C 93.200 105.877,94.251 104.230,95.805 102.027 C 96.480 101.071,96.483 101.040,95.900 101.148 M323.816 167.850 C 323.807 168.043,323.710 168.200,323.600 168.200 C 323.490 168.200,323.400 168.309,323.400 168.443 C 323.400 168.600,323.514 168.572,323.723 168.363 C 323.901 168.185,323.998 167.918,323.939 167.770 C 323.865 167.585,323.827 167.610,323.816 167.850 M92.600 213.600 C 92.600 213.723,92.518 213.773,92.419 213.712 C 92.319 213.650,91.666 213.778,90.969 213.997 C 90.271 214.216,89.588 214.396,89.452 214.397 C 89.315 214.399,88.945 214.670,88.630 215.000 C 88.315 215.330,87.909 215.600,87.728 215.600 C 87.548 215.600,87.400 215.735,87.400 215.900 C 87.400 216.065,87.310 216.200,87.200 216.200 C 86.862 216.200,86.731 216.281,86.149 216.850 C 85.839 217.153,85.454 217.400,85.293 217.400 C 85.132 217.400,85.000 217.500,85.000 217.623 C 85.000 217.935,83.575 219.208,83.369 219.081 C 83.276 219.023,83.200 219.069,83.200 219.181 C 83.200 219.294,82.953 219.654,82.650 219.982 C 81.786 220.918,81.600 221.168,81.600 221.392 C 81.600 221.506,81.465 221.600,81.300 221.600 C 81.133 221.600,81.000 221.778,81.000 222.000 C 81.000 222.267,80.867 222.400,80.600 222.400 C 80.380 222.400,80.200 222.486,80.200 222.591 C 80.200 222.860,79.282 224.182,78.812 224.590 C 78.596 224.777,78.269 225.374,78.086 225.915 C 77.903 226.457,77.696 226.945,77.626 227.000 C 77.480 227.116,77.056 227.838,76.629 228.700 C 76.465 229.030,76.279 229.345,76.216 229.400 C 76.152 229.455,75.944 229.838,75.753 230.250 C 75.563 230.663,75.324 231.000,75.223 231.000 C 75.122 231.000,74.932 231.450,74.800 232.000 C 74.668 232.550,74.490 233.000,74.403 233.000 C 74.242 233.000,73.936 233.772,73.983 234.063 C 73.997 234.153,73.834 234.471,73.620 234.771 C 73.407 235.071,73.033 235.943,72.789 236.708 C 72.545 237.474,72.272 238.194,72.182 238.310 C 72.091 238.425,71.957 238.898,71.883 239.360 C 71.809 239.822,71.681 240.200,71.598 240.200 C 71.439 240.200,71.137 240.980,71.184 241.267 C 71.199 241.359,71.040 241.719,70.830 242.067 C 70.620 242.415,70.385 243.060,70.306 243.500 C 70.228 243.940,70.071 244.413,69.958 244.550 C 69.844 244.688,69.806 244.800,69.872 244.800 C 69.939 244.800,69.815 245.118,69.597 245.506 C 69.378 245.894,69.200 246.429,69.200 246.694 C 69.200 246.959,69.106 247.235,68.990 247.306 C 68.875 247.377,68.804 247.585,68.831 247.768 C 68.859 247.950,68.759 248.323,68.609 248.597 C 68.350 249.067,68.168 250.467,68.121 252.350 C 68.110 252.818,68.049 253.200,67.986 253.200 C 67.923 253.200,67.855 253.785,67.836 254.500 C 67.816 255.217,67.886 255.800,67.991 255.800 C 68.096 255.800,68.142 256.110,68.094 256.488 C 68.037 256.931,68.111 257.283,68.303 257.474 C 68.466 257.638,68.600 257.906,68.600 258.071 C 68.600 258.844,74.094 258.727,79.900 257.831 C 82.120 257.488,84.893 256.996,85.800 256.785 C 86.295 256.670,86.970 256.530,87.300 256.474 C 87.630 256.418,88.080 256.296,88.300 256.201 C 88.520 256.107,88.925 255.984,89.200 255.927 C 90.734 255.611,91.745 255.356,92.100 255.198 C 92.320 255.099,93.490 254.689,94.700 254.286 C 96.767 253.597,97.964 253.103,100.600 251.848 C 101.205 251.560,101.745 251.313,101.800 251.299 C 102.216 251.193,103.400 250.491,103.400 250.351 C 103.400 250.255,103.490 250.232,103.600 250.300 C 103.710 250.368,103.800 250.343,103.800 250.244 C 103.800 250.074,104.782 249.508,105.005 249.550 C 105.062 249.561,105.332 249.386,105.605 249.161 L 106.100 248.753 105.573 249.066 C 105.283 249.238,104.997 249.330,104.936 249.270 C 104.780 249.113,105.902 248.058,106.390 247.903 C 106.615 247.832,106.800 247.664,106.800 247.532 C 106.800 247.399,107.525 246.573,108.411 245.695 C 109.297 244.818,110.214 243.763,110.448 243.350 C 110.682 242.938,110.947 242.600,111.037 242.600 C 111.127 242.600,111.200 242.465,111.200 242.300 C 111.200 242.135,111.267 242.000,111.350 242.000 C 111.549 241.999,112.600 240.327,112.600 240.010 C 112.600 239.873,112.786 239.501,113.013 239.182 C 113.240 238.864,113.367 238.508,113.295 238.393 C 113.224 238.277,113.309 237.964,113.484 237.697 C 113.659 237.429,113.831 236.943,113.867 236.617 C 113.903 236.290,114.028 235.905,114.144 235.761 C 114.440 235.397,114.627 233.841,114.393 233.696 C 114.287 233.630,114.200 233.362,114.200 233.100 C 114.200 232.838,114.109 232.567,113.997 232.498 C 113.885 232.429,113.846 232.287,113.910 232.183 C 114.088 231.897,113.576 229.731,113.273 229.480 C 113.126 229.359,113.062 229.205,113.129 229.137 C 113.287 228.980,112.638 227.600,112.407 227.600 C 112.310 227.600,112.172 227.330,112.100 227.000 C 112.028 226.670,111.885 226.400,111.784 226.400 C 111.683 226.400,111.600 226.257,111.600 226.082 C 111.600 225.906,111.425 225.541,111.211 225.269 C 110.997 224.997,110.872 224.645,110.933 224.487 C 110.993 224.329,110.943 224.200,110.821 224.200 C 110.700 224.200,110.600 224.065,110.600 223.900 C 110.600 223.629,110.363 223.511,109.950 223.576 C 109.868 223.589,109.800 223.433,109.800 223.228 C 109.800 223.023,109.575 222.687,109.300 222.481 C 109.025 222.274,108.800 221.986,108.800 221.841 C 108.800 221.695,108.709 221.632,108.599 221.701 C 108.488 221.769,108.337 221.662,108.264 221.463 C 108.190 221.263,108.009 221.027,107.861 220.938 C 107.713 220.848,107.642 220.694,107.704 220.594 C 107.765 220.495,107.632 220.298,107.408 220.158 C 107.183 220.018,107.000 219.812,107.000 219.700 C 107.000 219.470,106.569 219.178,105.042 218.372 C 104.461 218.065,103.866 217.698,103.720 217.557 C 102.400 216.276,101.360 215.600,100.707 215.600 C 100.428 215.600,100.200 215.510,100.200 215.400 C 100.200 215.290,99.975 215.200,99.700 215.200 C 99.425 215.200,99.200 215.110,99.200 215.000 C 99.200 214.890,99.043 214.798,98.850 214.796 C 98.658 214.793,98.095 214.606,97.600 214.380 C 97.105 214.154,96.250 213.927,95.700 213.876 C 95.150 213.825,94.318 213.748,93.852 213.705 C 93.385 213.661,92.913 213.570,92.802 213.501 C 92.691 213.433,92.600 213.477,92.600 213.600 M233.506 283.152 C 232.552 283.192,231.850 283.315,231.756 283.459 C 231.639 283.640,231.550 283.625,231.400 283.400 C 231.222 283.133,231.178 283.133,231.003 283.400 C 230.871 283.601,230.805 283.617,230.803 283.450 C 230.801 283.292,230.505 283.200,230.000 283.200 C 229.560 283.200,229.200 283.290,229.200 283.400 C 229.200 283.510,228.975 283.600,228.700 283.600 C 228.389 283.600,228.200 283.713,228.200 283.900 C 228.200 284.065,228.020 284.380,227.800 284.600 C 227.580 284.820,227.265 285.000,227.100 285.000 C 226.935 285.000,226.800 285.090,226.800 285.200 C 226.800 285.310,226.620 285.400,226.400 285.400 C 226.180 285.400,226.000 285.490,226.000 285.600 C 226.000 285.710,225.865 285.800,225.700 285.800 C 225.535 285.800,225.400 285.890,225.400 286.000 C 225.400 286.110,225.130 286.200,224.800 286.200 C 224.455 286.200,224.199 286.094,224.197 285.950 C 224.195 285.773,224.151 285.765,224.047 285.925 C 223.966 286.049,223.607 286.213,223.250 286.291 C 222.791 286.390,222.600 286.545,222.600 286.816 C 222.600 287.241,222.280 287.340,222.152 286.956 C 222.023 286.568,221.009 287.707,220.871 288.395 C 220.788 288.810,220.632 289.000,220.375 289.000 C 220.169 289.000,220.000 289.135,220.000 289.300 C 220.000 289.465,219.910 289.600,219.800 289.600 C 219.690 289.600,219.600 289.774,219.600 289.986 C 219.600 290.198,219.465 290.506,219.300 290.671 C 219.135 290.836,219.000 291.032,219.000 291.105 C 219.000 291.179,218.730 291.492,218.400 291.800 C 218.070 292.108,217.800 292.459,217.800 292.580 C 217.800 292.701,217.673 292.800,217.517 292.800 C 217.361 292.800,217.181 292.913,217.117 293.050 C 217.023 293.250,216.977 293.250,216.883 293.050 C 216.702 292.661,216.434 292.755,216.364 293.234 C 216.270 293.870,215.881 293.899,215.297 293.315 C 214.646 292.664,214.600 292.670,214.600 293.400 C 214.600 293.730,214.690 294.000,214.800 294.000 C 214.910 294.000,215.000 294.135,215.000 294.300 C 215.000 294.465,214.910 294.600,214.800 294.600 C 214.690 294.600,214.600 294.870,214.600 295.200 C 214.600 295.530,214.500 295.800,214.379 295.800 C 214.257 295.800,214.209 295.935,214.272 296.100 C 214.336 296.265,214.300 296.400,214.194 296.400 C 214.087 296.400,214.000 296.670,214.000 297.000 C 214.000 297.330,213.910 297.600,213.800 297.600 C 213.690 297.600,213.600 297.825,213.600 298.100 C 213.600 298.375,213.690 298.600,213.800 298.600 C 213.910 298.600,214.000 298.780,214.000 299.000 C 214.000 299.220,213.910 299.400,213.800 299.400 C 213.690 299.400,213.603 299.558,213.606 299.750 C 213.614 300.157,214.088 300.845,214.249 300.684 C 214.310 300.623,214.347 300.827,214.332 301.137 C 214.317 301.447,214.214 301.774,214.102 301.865 C 213.970 301.974,213.986 302.065,214.150 302.132 C 214.288 302.188,214.400 302.444,214.400 302.702 C 214.400 302.960,214.535 303.306,214.700 303.471 C 214.895 303.666,215.000 304.162,215.000 304.886 C 215.000 305.499,215.090 306.000,215.200 306.000 C 215.310 306.000,215.400 306.180,215.400 306.400 C 215.400 306.620,215.490 306.800,215.600 306.800 C 215.711 306.800,215.800 307.325,215.800 307.976 C 215.800 308.776,215.896 309.230,216.100 309.400 C 216.265 309.537,216.400 309.953,216.400 310.324 C 216.400 310.696,216.468 311.001,216.550 311.002 C 216.632 311.004,216.878 311.375,217.095 311.829 C 217.312 312.282,217.650 312.753,217.845 312.875 C 218.040 312.996,218.200 313.334,218.200 313.625 C 218.200 313.985,218.327 314.187,218.600 314.258 C 218.870 314.329,219.000 314.531,219.000 314.881 C 219.000 315.167,219.083 315.400,219.184 315.400 C 219.285 315.400,219.430 315.681,219.505 316.025 C 219.699 316.906,220.367 318.026,221.603 319.542 C 221.711 319.674,221.800 319.886,221.800 320.013 C 221.800 320.139,222.025 320.419,222.300 320.636 C 222.575 320.852,222.800 321.169,222.800 321.341 C 222.800 321.650,223.084 321.946,224.084 322.678 C 224.368 322.886,224.600 323.167,224.600 323.303 C 224.600 323.439,224.853 323.601,225.162 323.662 C 225.502 323.730,225.815 323.974,225.954 324.278 C 226.080 324.555,226.492 324.943,226.871 325.141 C 227.249 325.338,227.946 325.995,228.419 326.600 C 229.518 328.002,229.724 328.209,229.876 328.057 C 229.944 327.989,230.000 328.082,230.000 328.263 C 230.000 328.448,230.220 328.648,230.500 328.718 C 230.805 328.794,231.000 328.986,231.000 329.208 C 231.000 329.409,231.179 329.630,231.397 329.699 C 231.616 329.768,232.059 330.090,232.382 330.413 C 232.705 330.736,233.111 331.000,233.285 331.000 C 233.458 331.000,233.600 331.090,233.600 331.200 C 233.600 331.310,233.735 331.400,233.900 331.400 C 234.065 331.400,234.200 331.490,234.200 331.600 C 234.200 331.710,234.465 331.800,234.788 331.800 C 235.112 331.800,235.434 331.894,235.505 332.008 C 235.576 332.123,235.806 332.162,236.017 332.095 C 236.231 332.027,236.400 332.067,236.400 332.187 C 236.400 332.304,236.611 332.400,236.869 332.400 C 237.127 332.400,237.501 332.580,237.700 332.800 C 237.899 333.020,238.183 333.200,238.331 333.200 C 238.479 333.200,238.600 333.300,238.600 333.422 C 238.600 333.560,238.794 333.595,239.115 333.514 C 239.647 333.381,241.000 333.758,241.000 334.040 C 241.000 334.277,243.155 334.234,243.235 333.995 C 243.272 333.883,243.662 333.734,244.102 333.664 C 244.541 333.595,244.964 333.440,245.042 333.321 C 245.141 333.168,245.257 333.177,245.432 333.352 C 245.728 333.648,246.800 333.686,246.800 333.400 C 246.800 333.290,247.115 333.200,247.500 333.200 C 248.139 333.200,248.200 333.149,248.200 332.621 C 248.200 332.277,248.329 331.993,248.518 331.921 C 248.952 331.754,248.804 318.065,248.365 317.756 C 248.157 317.610,248.154 317.548,248.350 317.468 C 248.532 317.394,248.600 316.660,248.600 314.770 L 248.600 312.173 248.150 312.300 C 247.795 312.399,247.763 312.381,248.000 312.213 C 248.267 312.024,248.267 311.976,248.000 311.785 C 247.774 311.623,247.762 311.544,247.950 311.468 C 248.088 311.412,248.200 311.202,248.200 311.000 C 248.200 310.798,248.088 310.588,247.950 310.532 C 247.750 310.452,247.750 310.428,247.950 310.416 C 248.245 310.397,248.293 309.600,248.000 309.600 C 247.884 309.600,247.800 308.939,247.800 308.017 C 247.800 306.937,247.720 306.401,247.550 306.332 C 247.356 306.253,247.361 306.188,247.573 306.039 C 247.803 305.878,247.803 305.829,247.573 305.724 C 247.362 305.628,247.356 305.574,247.550 305.483 C 247.847 305.345,247.889 304.600,247.600 304.600 C 247.490 304.600,247.400 304.382,247.400 304.117 C 247.400 303.851,247.288 303.588,247.150 303.532 C 246.969 303.458,246.962 303.385,247.125 303.265 C 247.379 303.078,247.251 301.800,246.977 301.800 C 246.880 301.800,246.800 301.620,246.800 301.400 C 246.800 301.180,246.710 301.000,246.600 301.000 C 246.490 301.000,246.400 300.640,246.400 300.200 C 246.400 299.760,246.310 299.400,246.200 299.400 C 246.090 299.400,246.000 299.220,246.000 299.000 C 246.000 298.780,245.916 298.600,245.812 298.600 C 245.709 298.600,245.564 298.195,245.490 297.700 C 245.415 297.205,245.275 296.800,245.177 296.800 C 245.080 296.800,245.000 296.505,245.000 296.144 C 245.000 295.718,244.860 295.387,244.600 295.200 C 244.340 295.013,244.200 294.682,244.200 294.256 C 244.200 293.895,244.098 293.600,243.974 293.600 C 243.829 293.600,243.787 293.359,243.856 292.931 C 243.939 292.420,243.875 292.198,243.582 291.987 C 243.308 291.790,243.200 291.469,243.200 290.856 C 243.200 290.385,243.110 290.000,243.000 290.000 C 242.890 290.000,242.800 289.865,242.800 289.700 C 242.800 289.335,242.569 289.315,242.218 289.650 C 242.003 289.854,241.980 289.817,242.091 289.450 C 242.194 289.110,242.146 289.000,241.897 289.000 C 241.715 289.000,241.261 288.685,240.887 288.300 C 240.513 287.915,240.090 287.600,239.948 287.600 C 239.805 287.600,239.559 287.420,239.400 287.200 C 239.241 286.980,238.997 286.800,238.856 286.800 C 238.715 286.800,238.600 286.710,238.600 286.600 C 238.600 286.490,238.420 286.400,238.200 286.400 C 237.980 286.400,237.800 286.304,237.800 286.186 C 237.800 285.956,237.309 285.400,237.105 285.400 C 237.037 285.400,236.766 285.184,236.502 284.920 C 236.239 284.657,235.910 284.403,235.771 284.357 C 235.633 284.311,235.515 284.017,235.510 283.703 C 235.498 283.043,235.577 283.065,233.506 283.152 " stroke="none" fill="#15ade4" fill-rule="evenodd"></path></g></svg>