<svg xmlns:dc="http://purl.org/dc/elements/1.1/" xmlns:cc="http://creativecommons.org/ns#" xmlns:rdf="http://www.w3.org/1999/02/22-rdf-syntax-ns#" xmlns:svg="http://www.w3.org/2000/svg" xmlns="http://www.w3.org/2000/svg" xmlns:sodipodi="http://sodipodi.sourceforge.net/DTD/sodipodi-0.dtd" xmlns:inkscape="http://www.inkscape.org/namespaces/inkscape" version="1.1" x="0px" y="0px" viewBox="0 0 100 125"><g transform="translate(0,-952.36218)"><path style="text-indent:0;text-transform:none;direction:ltr;block-progression:tb;baseline-shift:baseline;color:#000000;enable-background:accumulate;" d="m 50,970.3861 c -9.8652,0 -18,7.2202 -18,18.6875 0,4.3659 2.4276,10.36733 3.84375,13.6875 l 13.25,31 a 1.0001,1.0001 0 0 0 1.8125,0 l 13.25,-31 C 65.57241,999.44093 68,993.4395 68,989.0736 68,977.6063 59.86511,970.3861 50,970.3861 z m 0,2 c 8.91249,0 16,6.1423 16,16.6875 0,3.5676 -2.29786,9.64833 -3.6875,12.9063 L 50,1030.8549 37.6875,1001.9799 C 36.29785,998.72183 34,992.6412 34,989.0736 c 0,-10.5452 7.0874,-16.6875 16,-16.6875 z m 0,7 c -4.95874,0 -9,4.0414 -9,9 0,4.9587 4.04127,9.00003 9,9.00003 4.95873,0 9,-4.04133 9,-9.00003 0,-4.9586 -4.04126,-9 -9,-9 z m 0,2 c 3.87782,0 7,3.1223 7,7 0,3.8778 -3.12217,7.00003 -7,7.00003 -3.87783,0 -7,-3.12223 -7,-7.00003 0,-3.8777 3.12218,-7 7,-7 z" fill="#15ace4" fill-opacity="1" stroke="none" marker="none" visibility="visible" display="inline" overflow="visible"/></g></svg>
