<svg id="svg" version="1.1" width="400" height="404.4843049327354" viewBox="0 0 400 404.4843049327354" xmlns="http://www.w3.org/2000/svg" xmlns:xlink="http://www.w3.org/1999/xlink" ><g id="svgg"><path id="path0" d="M181.954 41.455 C 181.701 42.085,181.346 43.410,181.164 44.400 C 180.983 45.390,180.655 47.190,180.436 48.400 C 180.216 49.610,179.740 52.130,179.378 54.000 C 179.016 55.870,178.558 58.345,178.360 59.500 C 178.162 60.655,177.820 62.635,177.601 63.900 C 177.382 65.165,177.037 67.280,176.834 68.600 C 176.632 69.920,176.167 72.890,175.800 75.200 C 175.120 79.485,174.656 82.574,174.000 87.200 C 173.797 88.630,173.447 91.060,173.221 92.600 C 172.996 94.140,172.528 97.830,172.181 100.800 C 171.835 103.770,171.369 107.730,171.146 109.600 C 169.785 121.031,168.623 134.355,168.008 145.600 C 167.773 149.890,167.474 153.760,167.344 154.200 C 167.116 154.969,166.678 167.565,166.174 187.800 C 166.017 194.121,166.163 202.728,166.603 213.000 C 167.562 235.449,167.903 239.585,170.444 259.600 C 170.654 261.250,170.934 263.500,171.066 264.600 C 171.199 265.700,171.643 267.078,172.054 267.662 C 172.464 268.246,172.800 269.029,172.800 269.401 C 172.800 269.774,173.059 270.646,173.376 271.340 C 173.692 272.033,174.038 273.590,174.145 274.800 C 174.387 277.564,174.754 279.570,175.205 280.600 C 175.397 281.040,175.644 282.120,175.754 283.000 C 176.213 286.679,176.772 289.332,177.173 289.733 C 177.683 290.243,177.728 292.379,177.244 293.142 C 177.056 293.440,177.049 294.160,177.229 294.742 C 177.409 295.324,177.762 296.880,178.014 298.200 C 178.265 299.520,178.635 300.913,178.835 301.295 C 179.036 301.677,179.200 302.343,179.200 302.776 C 179.200 303.208,179.371 303.976,179.580 304.481 C 179.788 304.987,180.434 307.020,181.015 309.000 C 181.596 310.980,182.235 312.913,182.436 313.295 C 182.636 313.677,182.800 314.264,182.800 314.600 C 182.800 314.936,182.964 315.523,183.165 315.905 C 183.365 316.287,183.829 317.500,184.196 318.600 C 184.562 319.700,185.028 321.005,185.231 321.500 C 186.025 323.437,186.354 324.287,187.204 326.600 C 188.076 328.970,190.655 334.562,193.569 340.400 L 195.067 343.400 211.434 355.703 C 220.435 362.469,228.070 368.232,228.400 368.509 C 228.730 368.787,229.630 369.475,230.400 370.038 C 232.836 371.821,242.959 379.379,243.593 379.888 C 246.403 382.144,252.972 386.799,253.340 386.794 C 253.593 386.791,254.048 386.630,254.352 386.438 C 254.915 386.081,254.906 385.955,254.000 381.800 C 253.760 380.700,253.429 378.989,253.266 377.998 C 253.102 377.007,252.837 375.984,252.677 375.725 C 252.360 375.212,251.741 372.562,251.199 369.400 C 251.010 368.300,250.651 366.590,250.400 365.600 C 250.149 364.610,249.816 362.900,249.660 361.800 C 249.504 360.700,249.207 359.530,249.000 359.200 C 248.793 358.870,248.491 357.700,248.328 356.600 C 248.165 355.500,247.837 353.610,247.600 352.400 C 247.363 351.190,246.976 349.210,246.741 348.000 C 246.505 346.790,246.248 344.450,246.168 342.800 C 245.939 338.032,245.699 335.566,245.440 335.307 C 245.308 335.175,245.200 334.510,245.200 333.831 C 245.200 333.151,245.016 331.966,244.792 331.197 C 244.567 330.429,244.190 328.630,243.954 327.200 C 243.070 321.835,242.796 320.136,242.440 317.800 C 241.513 311.721,241.174 309.757,240.954 309.200 C 240.824 308.870,240.555 307.520,240.358 306.200 C 239.671 301.612,239.142 297.786,238.865 295.400 C 238.712 294.080,238.425 292.745,238.228 292.433 C 238.031 292.121,237.724 290.501,237.547 288.833 C 237.370 287.165,237.039 284.405,236.812 282.700 C 236.186 277.995,235.701 274.175,235.225 270.200 C 234.988 268.220,234.705 266.150,234.596 265.600 C 234.487 265.050,234.206 262.890,233.972 260.800 C 233.737 258.710,233.372 255.560,233.159 253.800 C 232.634 249.448,232.150 244.754,231.616 238.837 C 231.370 236.107,231.063 233.703,230.934 233.494 C 230.657 233.044,230.119 226.007,229.655 216.761 C 229.472 213.110,229.220 209.956,229.095 209.753 C 228.969 209.551,228.748 206.063,228.602 202.004 C 228.457 197.944,228.259 194.496,228.164 194.341 C 227.678 193.555,227.568 153.700,228.034 147.187 C 228.309 143.344,228.489 139.705,228.434 139.100 C 228.183 136.325,228.381 125.386,228.751 121.600 C 229.634 112.559,229.869 110.840,230.291 110.329 C 230.532 110.038,230.824 108.540,230.942 107.000 C 231.245 103.019,231.901 98.934,233.158 93.200 C 234.484 87.150,235.012 85.005,235.818 82.400 C 236.192 81.190,236.634 79.480,236.800 78.600 C 236.966 77.720,237.635 75.470,238.287 73.600 C 242.310 62.067,242.445 62.901,236.200 60.754 C 233.780 59.923,231.487 59.053,231.105 58.821 C 230.723 58.589,230.183 58.399,229.905 58.398 C 229.627 58.396,228.871 58.119,228.224 57.782 C 227.578 57.445,225.719 56.723,224.094 56.177 C 222.469 55.632,220.478 54.861,219.670 54.464 C 218.861 54.068,217.390 53.514,216.400 53.233 C 215.410 52.953,213.970 52.439,213.200 52.092 C 211.588 51.366,208.971 50.358,205.053 48.955 C 203.542 48.415,201.825 47.723,201.236 47.419 C 200.097 46.830,196.884 45.634,193.074 44.381 C 191.794 43.961,189.904 43.183,188.874 42.654 C 186.959 41.671,184.898 40.879,183.307 40.514 C 182.606 40.353,182.316 40.555,181.954 41.455 " stroke="none" fill="#000000" fill-rule="evenodd"></path><path id="path1" d="M178.400 46.741 C 176.970 48.205,175.170 50.138,174.400 51.036 C 173.630 51.935,171.533 54.274,169.740 56.235 C 166.501 59.778,156.196 72.263,154.378 74.848 C 153.854 75.591,153.189 76.444,152.899 76.743 C 152.609 77.041,151.666 78.301,150.803 79.543 C 149.940 80.784,148.256 83.060,147.059 84.600 C 145.863 86.140,142.750 90.550,140.142 94.399 C 137.534 98.249,135.264 101.579,135.098 101.799 C 134.094 103.131,131.200 107.608,131.200 107.829 C 131.200 107.974,130.570 108.951,129.800 110.000 C 129.030 111.049,128.400 112.012,128.400 112.141 C 128.400 112.270,127.590 113.627,126.600 115.158 C 125.610 116.688,124.800 118.042,124.800 118.166 C 124.800 118.290,123.990 119.655,123.000 121.200 C 122.010 122.745,121.200 124.114,121.200 124.242 C 121.200 124.371,120.868 124.954,120.463 125.538 C 120.058 126.122,119.204 127.590,118.566 128.800 C 117.928 130.010,117.315 131.090,117.203 131.200 C 117.091 131.310,116.574 132.210,116.053 133.200 C 115.532 134.190,114.199 136.710,113.091 138.800 C 111.982 140.890,110.249 144.220,109.238 146.200 C 108.227 148.180,107.265 149.860,107.100 149.933 C 106.935 150.007,106.800 150.286,106.800 150.555 C 106.800 150.823,106.362 151.933,105.826 153.021 C 101.495 161.821,97.200 171.287,97.200 172.033 C 97.200 172.217,99.315 173.434,101.900 174.737 C 109.532 178.584,114.574 181.243,114.980 181.634 C 115.189 181.835,115.684 182.000,116.080 182.000 C 116.476 182.000,116.800 182.180,116.800 182.400 C 116.800 182.620,117.008 182.800,117.262 182.800 C 117.515 182.800,121.019 184.416,125.048 186.391 C 136.955 192.230,135.941 191.830,136.605 190.952 C 136.918 190.539,137.180 189.975,137.187 189.700 C 137.194 189.425,137.380 189.200,137.600 189.200 C 137.820 189.200,138.000 189.023,138.000 188.808 C 138.000 188.298,140.832 183.841,141.267 183.667 C 141.450 183.593,141.600 183.372,141.600 183.174 C 141.600 182.977,142.275 181.798,143.100 180.554 C 143.925 179.310,144.780 178.001,145.000 177.646 C 146.038 175.969,148.219 172.986,148.493 172.867 C 148.662 172.793,148.800 172.590,148.800 172.415 C 148.800 171.934,159.604 155.820,160.030 155.667 C 160.233 155.593,160.400 155.293,160.400 155.000 C 160.400 154.707,160.538 154.407,160.707 154.333 C 160.876 154.260,161.727 153.210,162.599 152.000 C 163.470 150.790,164.412 149.562,164.692 149.271 C 164.971 148.981,165.200 148.621,165.200 148.471 C 165.201 148.104,167.028 146.000,167.347 146.000 C 167.486 146.000,167.628 146.675,167.661 147.500 C 167.695 148.325,167.859 146.750,168.026 144.000 C 168.599 134.557,169.930 119.925,171.172 109.400 C 171.380 107.640,171.744 104.400,171.982 102.200 C 172.220 100.000,172.593 96.940,172.811 95.400 C 173.490 90.611,174.505 83.735,175.408 77.800 C 175.743 75.600,176.203 72.540,176.430 71.000 C 176.658 69.460,177.008 67.300,177.210 66.200 C 177.411 65.100,177.777 62.940,178.024 61.400 C 178.270 59.860,178.629 57.880,178.821 57.000 C 179.014 56.120,179.458 53.780,179.809 51.800 C 180.160 49.820,180.637 47.335,180.869 46.278 C 181.438 43.684,181.376 43.695,178.400 46.741 M229.724 113.800 C 229.726 115.120,229.801 115.612,229.890 114.893 C 229.979 114.174,229.977 113.094,229.886 112.493 C 229.795 111.892,229.722 112.480,229.724 113.800 M227.693 151.600 C 227.693 152.370,227.775 152.685,227.876 152.300 C 227.976 151.915,227.976 151.285,227.876 150.900 C 227.775 150.515,227.693 150.830,227.693 151.600 M166.493 174.800 C 166.493 175.570,166.575 175.885,166.676 175.500 C 166.776 175.115,166.776 174.485,166.676 174.100 C 166.575 173.715,166.493 174.030,166.493 174.800 M227.714 181.800 C 227.717 182.900,227.795 183.303,227.887 182.695 C 227.979 182.086,227.977 181.186,227.882 180.695 C 227.787 180.203,227.711 180.700,227.714 181.800 M228.493 202.000 C 228.493 202.770,228.575 203.085,228.676 202.700 C 228.776 202.315,228.776 201.685,228.676 201.300 C 228.575 200.915,228.493 201.230,228.493 202.000 M77.976 223.695 C 77.725 224.633,77.293 226.120,77.017 227.000 C 76.741 227.880,76.324 229.320,76.091 230.200 C 74.706 235.417,74.616 235.737,73.165 240.628 C 72.964 241.304,72.800 242.238,72.800 242.705 C 72.800 243.171,72.620 243.664,72.400 243.800 C 72.180 243.936,72.000 244.582,72.000 245.236 C 72.000 245.891,71.745 247.035,71.434 247.780 C 71.123 248.525,70.940 249.206,71.027 249.294 C 71.115 249.381,70.991 250.071,70.752 250.826 C 70.514 251.582,70.157 252.965,69.959 253.900 C 69.762 254.835,69.413 256.455,69.184 257.500 C 68.955 258.545,68.613 260.322,68.425 261.449 C 68.237 262.576,67.891 263.857,67.656 264.296 C 67.420 264.735,67.318 265.185,67.428 265.295 C 67.538 265.405,67.425 266.283,67.178 267.247 C 66.931 268.211,66.564 269.945,66.364 271.100 C 66.164 272.255,65.815 274.235,65.589 275.500 C 65.363 276.765,65.012 278.880,64.808 280.200 C 64.604 281.520,64.321 283.325,64.178 284.212 C 63.895 285.969,65.346 287.749,74.695 297.109 C 76.513 298.930,78.000 300.622,78.000 300.870 C 78.000 301.117,78.469 302.328,79.042 303.560 C 79.615 304.792,80.226 306.160,80.399 306.600 C 80.573 307.040,81.207 308.480,81.809 309.800 C 82.411 311.120,83.046 312.560,83.221 313.000 C 84.585 316.440,85.000 317.148,85.762 317.327 C 86.223 317.436,88.400 318.007,90.600 318.597 C 92.800 319.188,95.320 319.825,96.200 320.013 C 97.080 320.202,98.520 320.528,99.400 320.738 C 100.280 320.948,101.959 321.315,103.131 321.555 C 104.303 321.795,105.472 322.121,105.729 322.280 C 105.986 322.439,107.052 322.711,108.098 322.884 C 109.144 323.058,110.945 323.386,112.100 323.613 C 116.056 324.391,117.803 324.722,120.371 325.181 C 121.785 325.433,123.135 325.762,123.371 325.911 C 123.607 326.060,124.835 326.321,126.100 326.491 C 127.365 326.661,129.525 326.985,130.900 327.212 C 133.312 327.609,134.209 327.740,141.573 328.771 C 143.429 329.031,145.139 329.367,145.373 329.517 C 145.608 329.668,147.060 329.928,148.600 330.094 C 155.734 330.865,159.677 331.272,163.000 331.579 C 172.633 332.470,175.849 332.817,176.392 333.022 C 176.717 333.145,179.582 333.335,182.758 333.444 C 185.933 333.553,188.877 333.827,189.300 334.054 C 190.510 334.701,190.505 334.288,189.271 331.554 C 188.637 330.149,187.714 327.920,187.220 326.600 C 186.017 323.385,185.780 322.773,185.285 321.600 C 185.052 321.050,184.562 319.700,184.196 318.600 C 183.829 317.500,183.365 316.287,183.165 315.905 C 182.964 315.523,182.800 314.936,182.800 314.600 C 182.800 314.264,182.636 313.677,182.436 313.295 C 182.235 312.913,181.596 310.980,181.015 309.000 C 180.434 307.020,179.788 304.987,179.580 304.481 C 179.371 303.976,179.200 303.157,179.200 302.661 C 179.200 302.166,179.034 301.589,178.831 301.380 C 178.628 301.171,178.403 300.481,178.331 299.846 L 178.200 298.692 173.800 298.769 C 171.380 298.812,168.050 299.017,166.400 299.226 C 162.552 299.713,105.196 299.692,102.800 299.203 C 101.810 299.000,98.660 298.826,95.800 298.814 C 92.940 298.803,89.430 298.598,88.000 298.359 C 86.570 298.120,84.992 297.919,84.493 297.912 C 83.248 297.895,83.014 297.344,83.766 296.196 C 84.114 295.664,84.400 294.943,84.400 294.595 C 84.400 294.246,84.760 293.216,85.200 292.306 C 85.640 291.395,86.000 290.411,86.000 290.119 C 86.000 289.828,86.165 289.277,86.367 288.895 C 86.840 288.001,89.327 282.311,89.993 280.600 C 90.947 278.148,91.804 276.176,91.991 276.000 C 92.108 275.890,92.443 275.080,92.735 274.200 C 93.455 272.033,95.151 268.196,98.571 261.000 C 99.512 259.020,100.780 256.320,101.389 255.000 C 101.999 253.680,103.825 249.900,105.449 246.600 C 108.860 239.667,108.792 239.969,107.104 239.221 C 105.286 238.417,101.317 236.144,94.844 232.200 C 90.979 229.845,89.295 228.840,88.200 228.233 C 87.760 227.989,85.780 226.695,83.800 225.357 C 78.250 221.608,78.516 221.684,77.976 223.695 M173.593 273.719 L 173.785 275.800 173.918 274.046 C 173.991 273.081,173.905 272.144,173.726 271.965 C 173.547 271.785,173.487 272.575,173.593 273.719 M177.301 291.400 C 177.305 292.280,177.387 292.593,177.483 292.095 C 177.579 291.598,177.575 290.878,177.475 290.495 C 177.375 290.113,177.296 290.520,177.301 291.400 M238.331 292.600 C 238.472 292.820,238.712 294.080,238.865 295.400 C 239.142 297.786,239.671 301.612,240.358 306.200 C 240.555 307.520,240.824 308.870,240.954 309.200 C 241.174 309.757,241.513 311.721,242.440 317.800 C 242.796 320.136,243.070 321.835,243.954 327.200 C 244.190 328.630,244.567 330.429,244.792 331.197 C 245.016 331.966,245.214 333.226,245.232 333.997 C 245.249 334.769,245.354 335.175,245.465 334.900 C 245.592 334.584,246.501 334.397,247.933 334.392 C 249.180 334.388,251.370 334.216,252.800 334.010 C 254.230 333.804,257.560 333.533,260.200 333.407 C 262.840 333.281,265.278 333.093,265.617 332.989 C 265.956 332.884,268.746 332.601,271.817 332.358 C 277.213 331.932,279.049 331.747,287.200 330.812 C 289.290 330.572,292.170 330.280,293.600 330.162 C 295.030 330.045,296.650 329.780,297.200 329.572 C 297.750 329.365,299.550 328.999,301.200 328.760 C 302.850 328.521,305.370 328.154,306.800 327.946 C 308.230 327.737,310.390 327.469,311.600 327.348 C 312.810 327.228,313.971 326.965,314.180 326.765 C 314.389 326.564,315.388 326.400,316.400 326.400 C 317.412 326.400,318.411 326.230,318.620 326.023 C 318.999 325.647,322.768 324.864,325.800 324.530 C 326.680 324.434,327.760 324.195,328.200 324.000 C 328.640 323.805,329.720 323.567,330.600 323.472 C 331.480 323.377,333.640 322.907,335.400 322.428 C 337.160 321.948,339.320 321.374,340.200 321.151 C 341.080 320.928,342.353 320.578,343.028 320.373 C 343.704 320.168,344.709 320.000,345.262 320.000 C 345.814 320.000,346.401 319.865,346.564 319.700 C 346.728 319.535,347.688 319.220,348.698 319.000 C 351.209 318.453,351.312 317.735,348.920 317.455 C 344.784 316.972,343.369 316.742,342.600 316.428 C 341.445 315.957,334.506 314.550,331.400 314.157 C 330.520 314.046,329.440 313.796,329.000 313.602 C 328.560 313.408,327.570 313.156,326.800 313.041 C 323.551 312.558,321.330 312.088,320.274 311.658 C 319.655 311.406,318.656 311.200,318.054 311.200 C 317.452 311.200,316.789 311.038,316.580 310.841 C 316.222 310.503,315.637 310.386,311.200 309.769 C 310.210 309.631,309.229 309.356,309.020 309.159 C 308.811 308.962,308.068 308.800,307.369 308.800 C 306.670 308.800,305.451 308.530,304.662 308.200 C 303.872 307.870,302.691 307.600,302.036 307.600 C 301.382 307.600,300.736 307.420,300.600 307.200 C 300.464 306.980,299.654 306.800,298.800 306.800 C 297.946 306.800,297.136 306.620,297.000 306.400 C 296.864 306.180,296.054 306.000,295.200 306.000 C 294.346 306.000,293.551 305.844,293.433 305.654 C 293.316 305.464,292.540 305.198,291.710 305.064 C 290.879 304.930,289.210 304.526,288.000 304.166 C 286.790 303.806,285.260 303.429,284.600 303.328 C 283.940 303.228,283.040 302.990,282.600 302.800 C 282.160 302.610,281.260 302.363,280.600 302.252 C 279.940 302.140,278.680 301.868,277.800 301.647 C 276.920 301.426,275.300 301.036,274.200 300.781 C 273.100 300.525,272.029 300.155,271.820 299.958 C 271.611 299.761,270.857 299.600,270.144 299.600 C 269.431 299.600,268.748 299.439,268.626 299.242 C 268.505 299.045,267.729 298.786,266.903 298.665 C 264.187 298.268,262.612 297.950,261.800 297.635 C 259.732 296.833,256.813 296.000,256.070 296.000 C 255.617 296.000,255.136 295.820,255.000 295.600 C 254.864 295.380,254.234 295.200,253.600 295.200 C 252.966 295.200,252.336 295.020,252.200 294.800 C 252.064 294.580,251.363 294.400,250.643 294.400 C 249.923 294.400,249.205 294.271,249.047 294.114 C 248.039 293.106,237.721 291.648,238.331 292.600 M248.501 357.000 C 248.505 357.880,248.587 358.193,248.683 357.695 C 248.779 357.198,248.775 356.478,248.675 356.095 C 248.575 355.713,248.496 356.120,248.501 357.000 M251.293 370.000 C 251.293 370.770,251.375 371.085,251.476 370.700 C 251.576 370.315,251.576 369.685,251.476 369.300 C 251.375 368.915,251.293 369.230,251.293 370.000 " stroke="none" fill="#000000" fill-rule="evenodd"></path><path id="path2" d="M37.600 141.776 C 37.600 142.533,37.760 143.252,37.956 143.373 C 38.151 143.494,38.407 144.179,38.525 144.896 C 38.642 145.613,39.039 147.190,39.407 148.400 C 40.109 150.708,40.597 152.593,41.012 154.600 C 41.149 155.260,41.413 156.160,41.600 156.600 C 41.787 157.040,42.028 157.850,42.137 158.400 C 42.245 158.950,42.633 160.390,42.999 161.600 C 43.826 164.336,44.393 166.609,44.673 168.304 C 44.792 169.021,45.049 169.706,45.244 169.827 C 45.440 169.948,45.600 170.656,45.600 171.400 C 45.600 172.144,45.760 172.852,45.956 172.973 C 46.151 173.094,46.407 173.779,46.525 174.496 C 46.642 175.213,47.039 176.790,47.407 178.000 C 48.109 180.308,48.597 182.193,49.012 184.200 C 49.149 184.860,49.413 185.760,49.600 186.200 C 49.787 186.640,50.034 187.450,50.148 188.000 C 50.263 188.550,50.660 189.990,51.031 191.200 C 51.402 192.410,51.790 194.076,51.895 194.903 C 51.999 195.729,52.245 196.505,52.442 196.626 C 52.639 196.748,52.800 197.265,52.800 197.775 C 52.800 200.200,57.256 205.660,61.185 208.049 C 61.805 208.426,62.435 208.934,62.585 209.176 C 62.735 209.419,63.790 210.319,64.929 211.177 C 66.068 212.035,67.475 213.156,68.056 213.668 C 70.535 215.856,85.263 226.035,87.000 226.762 C 87.220 226.854,88.891 227.890,90.714 229.065 C 92.537 230.239,94.110 231.200,94.210 231.200 C 94.310 231.200,95.655 232.010,97.200 233.000 C 98.745 233.990,100.114 234.800,100.242 234.800 C 100.371 234.800,100.954 235.131,101.538 235.536 C 102.122 235.941,103.950 236.998,105.600 237.885 C 108.853 239.633,111.120 240.904,113.000 242.035 C 114.159 242.731,116.164 243.738,120.800 245.950 C 122.010 246.528,123.060 247.135,123.133 247.300 C 123.207 247.465,123.488 247.600,123.759 247.600 C 124.029 247.600,126.039 248.477,128.225 249.548 C 132.613 251.699,136.551 253.546,139.000 254.601 C 139.880 254.980,141.770 255.831,143.200 256.491 C 145.715 257.653,146.918 258.170,148.600 258.813 C 149.890 259.306,152.475 260.420,154.226 261.240 C 155.121 261.658,156.156 262.000,156.526 262.000 C 156.897 262.000,157.200 262.180,157.200 262.400 C 157.200 262.620,157.456 262.800,157.768 262.800 C 158.081 262.800,159.830 263.430,161.656 264.200 C 163.482 264.970,165.206 265.600,165.488 265.600 C 165.770 265.600,166.000 265.780,166.000 266.000 C 166.000 266.220,166.420 266.400,166.933 266.400 C 167.447 266.400,167.990 266.523,168.141 266.674 C 168.292 266.825,169.063 267.171,169.854 267.443 L 171.294 267.938 171.043 265.869 C 170.906 264.731,170.630 262.630,170.432 261.200 C 169.035 251.143,167.245 232.701,166.782 223.600 C 165.913 206.536,165.920 206.619,165.290 205.900 C 164.952 205.515,164.451 205.200,164.176 205.200 C 163.901 205.200,162.984 204.857,162.138 204.438 C 159.368 203.066,155.986 201.600,155.589 201.600 C 155.375 201.600,155.200 201.420,155.200 201.200 C 155.200 200.980,154.928 200.800,154.595 200.800 C 154.262 200.800,153.677 200.626,153.295 200.413 C 151.553 199.442,140.727 194.400,140.384 194.400 C 140.173 194.400,140.000 194.220,140.000 194.000 C 140.000 193.780,139.634 193.600,139.187 193.600 C 138.741 193.600,138.276 193.342,138.155 193.027 C 138.034 192.712,137.635 192.475,137.268 192.500 C 136.322 192.564,107.514 178.528,99.200 173.953 C 91.515 169.724,88.145 167.931,87.500 167.727 C 87.115 167.606,86.800 167.348,86.800 167.153 C 86.800 166.959,86.545 166.800,86.232 166.800 C 85.519 166.800,83.206 165.502,83.203 165.100 C 83.201 164.935,82.935 164.800,82.612 164.800 C 82.289 164.800,81.344 164.409,80.512 163.930 C 79.680 163.452,78.190 162.627,77.200 162.097 C 76.210 161.566,74.500 160.619,73.400 159.991 C 72.300 159.363,70.320 158.304,69.000 157.637 C 67.680 156.970,65.790 155.941,64.800 155.352 C 63.810 154.762,62.010 153.767,60.800 153.140 C 59.590 152.513,57.880 151.556,57.000 151.012 C 56.120 150.469,54.680 149.659,53.800 149.211 C 52.920 148.764,51.480 147.954,50.600 147.411 C 49.720 146.869,48.280 146.059,47.400 145.611 C 46.520 145.164,45.080 144.350,44.200 143.802 C 43.320 143.254,42.330 142.682,42.000 142.532 C 41.670 142.381,41.310 142.146,41.200 142.008 C 40.973 141.725,38.205 140.400,37.840 140.400 C 37.708 140.400,37.600 141.019,37.600 141.776 M231.436 234.197 C 231.304 234.723,231.387 236.469,231.620 238.077 C 231.853 239.685,232.223 242.890,232.442 245.200 C 232.661 247.510,233.023 250.930,233.247 252.800 C 233.471 254.670,233.802 257.550,233.982 259.200 C 234.163 260.850,234.516 264.071,234.768 266.359 C 235.020 268.646,235.315 270.662,235.424 270.839 C 235.533 271.015,235.809 272.834,236.037 274.880 C 236.265 276.926,236.622 279.860,236.831 281.400 C 237.039 282.940,237.345 285.370,237.511 286.800 C 237.953 290.608,237.230 290.204,250.000 293.783 C 252.750 294.554,256.890 295.720,259.200 296.375 C 262.857 297.411,265.236 298.033,271.600 299.615 C 274.708 300.388,276.473 300.817,277.900 301.145 C 280.081 301.647,289.195 303.969,290.600 304.380 C 291.828 304.740,299.245 306.541,302.300 307.221 C 303.235 307.430,304.765 307.772,305.700 307.982 C 306.635 308.193,308.570 308.625,310.000 308.944 C 312.257 309.446,315.304 310.128,321.800 311.585 C 322.680 311.783,324.210 312.132,325.200 312.361 C 328.572 313.142,337.105 314.866,341.000 315.553 C 346.408 316.506,352.286 317.740,353.021 318.075 C 353.472 318.282,354.730 318.394,355.816 318.325 C 358.098 318.180,358.104 318.166,358.796 311.400 C 358.999 309.420,359.356 307.023,359.590 306.074 C 359.824 305.125,359.914 304.185,359.790 303.985 C 359.667 303.784,359.843 302.158,360.182 300.371 C 360.521 298.583,360.715 296.986,360.614 296.822 C 360.512 296.657,360.611 295.550,360.835 294.361 C 361.229 292.262,361.537 289.741,362.331 282.132 C 362.541 280.114,362.830 278.275,362.972 278.046 C 363.114 277.816,363.239 276.587,363.251 275.314 C 363.262 274.041,363.537 271.843,363.861 270.428 C 364.915 265.831,364.737 265.698,357.114 265.368 C 354.441 265.252,352.072 265.045,351.850 264.907 C 351.628 264.770,349.996 264.515,348.223 264.340 C 339.130 263.444,335.377 262.865,327.694 261.175 C 326.756 260.969,325.544 260.800,325.000 260.800 C 323.977 260.800,321.380 260.257,318.600 259.461 C 317.720 259.209,316.844 259.054,316.653 259.117 C 316.463 259.180,315.653 259.015,314.853 258.751 C 314.054 258.488,312.820 258.220,312.111 258.156 C 311.403 258.092,310.469 257.851,310.038 257.620 C 309.606 257.389,308.621 257.200,307.850 257.200 C 307.078 257.200,306.336 257.020,306.200 256.800 C 306.064 256.580,305.421 256.400,304.771 256.400 C 304.121 256.400,303.277 256.241,302.895 256.047 C 302.168 255.678,299.217 254.861,297.737 254.619 C 297.262 254.542,296.272 254.293,295.537 254.066 C 294.298 253.684,293.226 253.399,289.000 252.329 C 288.120 252.106,286.809 251.670,286.086 251.362 C 285.364 251.053,284.340 250.800,283.810 250.800 C 283.280 250.800,282.736 250.620,282.600 250.400 C 282.464 250.180,281.834 250.000,281.200 250.000 C 280.566 250.000,279.936 249.820,279.800 249.600 C 279.664 249.380,279.122 249.200,278.595 249.200 C 278.069 249.200,277.224 249.036,276.719 248.836 C 276.213 248.636,274.720 248.163,273.400 247.785 C 272.080 247.407,270.829 246.940,270.620 246.749 C 270.411 246.557,269.837 246.400,269.344 246.400 C 268.851 246.400,268.336 246.220,268.200 246.000 C 268.064 245.780,267.511 245.600,266.971 245.600 C 266.431 245.600,265.677 245.437,265.295 245.237 C 264.913 245.037,263.700 244.599,262.600 244.262 C 259.780 243.400,257.913 242.749,257.105 242.346 C 256.723 242.156,256.059 242.000,255.629 242.000 C 255.199 242.000,254.736 241.820,254.600 241.600 C 254.464 241.380,254.001 241.200,253.571 241.200 C 253.141 241.200,252.477 241.042,252.095 240.848 C 251.713 240.655,250.410 240.180,249.200 239.792 C 247.990 239.405,246.829 238.933,246.620 238.744 C 246.411 238.555,245.837 238.400,245.344 238.400 C 244.851 238.400,244.336 238.220,244.200 238.000 C 244.064 237.780,243.524 237.600,243.000 237.600 C 242.476 237.600,241.936 237.420,241.800 237.200 C 241.664 236.980,241.201 236.800,240.771 236.800 C 239.987 236.800,239.736 236.704,237.268 235.468 C 236.535 235.100,235.677 234.800,235.362 234.800 C 235.047 234.800,234.432 234.620,233.995 234.400 C 231.585 233.187,231.688 233.195,231.436 234.197 " stroke="none" fill="#000000" fill-rule="evenodd"></path><path id="path3" d="M0.000 202.200 L 0.000 404.400 200.000 404.400 L 400.000 404.400 400.000 202.200 L 400.000 0.000 200.000 0.000 L 0.000 0.000 0.000 202.200 M185.124 40.410 C 185.852 40.854,186.586 41.132,186.755 41.028 C 186.923 40.924,187.933 41.280,188.998 41.819 C 190.064 42.359,191.254 42.800,191.644 42.800 C 192.034 42.800,192.455 42.966,192.581 43.169 C 192.706 43.372,193.380 43.664,194.078 43.817 C 194.775 43.970,195.949 44.434,196.685 44.848 C 197.422 45.262,198.291 45.600,198.618 45.600 C 198.944 45.600,199.523 45.760,199.905 45.956 C 200.287 46.151,201.320 46.628,202.200 47.015 C 203.080 47.401,204.113 47.871,204.495 48.059 C 204.877 48.246,205.546 48.400,205.982 48.400 C 206.419 48.400,207.417 48.760,208.200 49.200 C 208.983 49.640,209.879 50.000,210.191 50.000 C 210.503 50.000,211.604 50.450,212.638 51.000 C 213.673 51.550,214.842 52.000,215.236 52.000 C 215.630 52.000,216.064 52.180,216.200 52.400 C 216.336 52.620,216.977 52.800,217.624 52.800 C 218.271 52.800,218.800 52.980,218.800 53.200 C 218.800 53.420,219.072 53.600,219.405 53.600 C 220.016 53.600,220.305 53.716,222.732 54.932 C 223.465 55.300,224.405 55.600,224.820 55.600 C 225.236 55.600,226.217 55.960,227.000 56.400 C 227.783 56.840,228.854 57.200,229.379 57.200 C 229.904 57.200,230.393 57.335,230.467 57.500 C 230.685 57.990,233.205 59.200,234.009 59.200 C 234.418 59.200,234.864 59.380,235.000 59.600 C 235.136 59.820,235.766 60.000,236.400 60.000 C 237.034 60.000,237.664 60.180,237.800 60.400 C 237.936 60.620,238.473 60.800,238.993 60.800 C 240.133 60.800,242.400 62.953,242.400 64.036 C 242.400 64.813,242.304 65.066,241.068 67.532 C 240.700 68.265,240.400 69.290,240.400 69.809 C 240.400 70.328,240.220 70.864,240.000 71.000 C 239.780 71.136,239.600 71.777,239.600 72.424 C 239.600 73.071,239.420 73.600,239.200 73.600 C 238.980 73.600,238.800 74.129,238.800 74.776 C 238.800 75.423,238.620 76.064,238.400 76.200 C 238.180 76.336,237.999 76.932,237.998 77.524 C 237.996 78.116,237.726 79.116,237.398 79.746 C 237.069 80.376,236.800 81.220,236.800 81.622 C 236.800 82.024,236.620 82.464,236.400 82.600 C 236.180 82.736,236.000 83.546,236.000 84.400 C 236.000 85.254,235.820 86.064,235.600 86.200 C 235.380 86.336,235.200 87.249,235.200 88.229 C 235.200 89.209,235.041 90.323,234.847 90.705 C 234.299 91.785,233.540 94.814,233.321 96.800 C 233.212 97.790,232.960 98.771,232.761 98.980 C 232.563 99.189,232.400 100.404,232.400 101.680 C 232.400 102.960,232.221 104.000,232.000 104.000 C 231.769 104.000,231.600 105.259,231.600 106.976 C 231.600 108.613,231.420 110.064,231.200 110.200 C 230.980 110.336,230.794 111.742,230.787 113.324 C 230.779 115.216,230.574 116.466,230.187 116.976 C 229.764 117.536,229.600 118.843,229.600 121.653 C 229.600 123.798,229.424 125.662,229.208 125.795 C 228.965 125.945,228.836 130.538,228.869 137.918 C 228.902 145.565,228.757 150.568,228.461 151.955 C 227.880 154.670,227.839 176.786,228.405 181.573 C 228.628 183.458,229.004 189.770,229.239 195.600 C 230.295 221.753,231.235 233.053,232.400 233.596 C 232.730 233.750,233.403 234.084,233.895 234.338 C 234.387 234.592,235.047 234.800,235.362 234.800 C 235.677 234.800,236.535 235.100,237.268 235.468 C 239.736 236.704,239.987 236.800,240.771 236.800 C 241.201 236.800,241.664 236.980,241.800 237.200 C 241.936 237.420,242.476 237.600,243.000 237.600 C 243.524 237.600,244.064 237.780,244.200 238.000 C 244.336 238.220,244.851 238.400,245.344 238.400 C 245.837 238.400,246.411 238.555,246.620 238.744 C 246.829 238.933,247.990 239.405,249.200 239.792 C 250.410 240.180,251.713 240.655,252.095 240.848 C 252.477 241.042,253.141 241.200,253.571 241.200 C 254.001 241.200,254.464 241.380,254.600 241.600 C 254.736 241.820,255.199 242.000,255.629 242.000 C 256.059 242.000,256.723 242.156,257.105 242.346 C 257.913 242.749,259.780 243.400,262.600 244.262 C 263.700 244.599,264.913 245.037,265.295 245.237 C 265.677 245.437,266.431 245.600,266.971 245.600 C 267.511 245.600,268.064 245.780,268.200 246.000 C 268.336 246.220,268.851 246.400,269.344 246.400 C 269.837 246.400,270.411 246.557,270.620 246.749 C 270.829 246.940,272.080 247.407,273.400 247.785 C 274.720 248.163,276.213 248.636,276.719 248.836 C 277.224 249.036,278.069 249.200,278.595 249.200 C 279.122 249.200,279.664 249.380,279.800 249.600 C 279.936 249.820,280.566 250.000,281.200 250.000 C 281.834 250.000,282.464 250.180,282.600 250.400 C 282.736 250.620,283.280 250.800,283.810 250.800 C 284.340 250.800,285.364 251.053,286.086 251.362 C 287.317 251.888,288.257 252.161,292.500 253.227 C 293.435 253.462,294.802 253.840,295.537 254.066 C 296.272 254.293,297.262 254.542,297.737 254.619 C 299.217 254.861,302.168 255.678,302.895 256.047 C 303.277 256.241,304.121 256.400,304.771 256.400 C 305.421 256.400,306.064 256.580,306.200 256.800 C 306.336 257.020,307.078 257.200,307.850 257.200 C 308.621 257.200,309.606 257.389,310.038 257.620 C 310.469 257.851,311.403 258.092,312.111 258.156 C 312.820 258.220,314.054 258.488,314.853 258.751 C 315.653 259.015,316.463 259.180,316.653 259.117 C 316.844 259.054,317.720 259.209,318.600 259.461 C 321.380 260.257,323.977 260.800,325.000 260.800 C 325.544 260.800,326.756 260.969,327.694 261.175 C 335.377 262.865,339.130 263.444,348.223 264.340 C 349.996 264.515,351.628 264.770,351.850 264.907 C 352.879 265.543,361.958 265.585,362.586 264.957 C 364.154 263.389,364.783 266.285,363.812 270.600 C 363.515 271.920,363.262 274.041,363.251 275.314 C 363.239 276.587,363.114 277.816,362.972 278.046 C 362.830 278.275,362.541 280.114,362.331 282.132 C 361.537 289.741,361.229 292.262,360.835 294.361 C 360.611 295.550,360.512 296.657,360.614 296.822 C 360.715 296.986,360.521 298.583,360.182 300.371 C 359.843 302.158,359.667 303.784,359.790 303.985 C 359.914 304.185,359.824 305.125,359.590 306.074 C 359.356 307.023,358.999 309.420,358.796 311.400 C 358.594 313.380,358.284 315.720,358.109 316.600 L 357.789 318.200 355.011 318.320 C 353.483 318.386,351.998 318.636,351.709 318.875 C 351.166 319.326,348.903 319.911,346.297 320.275 C 345.471 320.390,344.695 320.645,344.574 320.842 C 344.452 321.039,343.812 321.200,343.150 321.200 C 342.489 321.200,341.612 321.379,341.202 321.599 C 340.792 321.818,339.782 322.084,338.958 322.190 C 338.133 322.295,337.274 322.566,337.049 322.791 C 336.824 323.016,336.057 323.200,335.344 323.200 C 334.631 323.200,333.936 323.380,333.800 323.600 C 333.664 323.820,332.764 324.000,331.800 324.000 C 330.836 324.000,329.936 324.180,329.800 324.400 C 329.664 324.620,328.699 324.800,327.656 324.800 C 326.613 324.800,325.589 324.959,325.380 325.153 C 325.025 325.484,322.673 326.002,317.700 326.844 C 316.545 327.040,314.565 327.387,313.300 327.616 C 312.035 327.845,309.920 328.190,308.600 328.383 C 307.280 328.576,305.402 328.911,304.427 329.127 C 303.452 329.343,302.448 329.440,302.196 329.343 C 301.944 329.247,301.212 329.370,300.569 329.617 C 299.159 330.159,293.352 330.924,283.000 331.932 C 281.020 332.125,279.130 332.395,278.800 332.531 C 278.470 332.668,276.580 332.863,274.600 332.964 C 272.620 333.066,269.650 333.330,268.000 333.551 C 266.350 333.772,263.830 333.962,262.400 333.973 C 260.970 333.984,259.080 334.171,258.200 334.387 C 257.320 334.604,254.215 334.785,251.300 334.790 L 246.000 334.800 246.000 336.120 C 246.000 336.846,246.195 337.635,246.433 337.873 C 246.689 338.129,246.854 339.877,246.836 342.131 C 246.819 344.268,246.981 346.064,247.203 346.202 C 247.421 346.337,247.600 347.337,247.600 348.424 C 247.600 349.511,247.780 350.400,248.000 350.400 C 248.220 350.400,248.401 351.165,248.402 352.100 C 248.404 353.035,248.674 354.316,249.002 354.946 C 249.331 355.576,249.600 356.881,249.600 357.846 C 249.600 358.811,249.780 359.600,250.000 359.600 C 250.220 359.600,250.400 360.590,250.400 361.800 C 250.400 363.010,250.580 364.000,250.800 364.000 C 251.020 364.000,251.200 364.709,251.200 365.576 C 251.200 366.443,251.380 367.264,251.600 367.400 C 251.820 367.536,252.000 368.412,252.000 369.347 C 252.000 370.282,252.264 371.396,252.587 371.824 C 252.910 372.251,253.180 373.264,253.187 374.076 C 253.194 374.888,253.380 375.664,253.600 375.800 C 253.820 375.936,254.000 376.926,254.000 378.000 C 254.000 379.074,254.180 380.064,254.400 380.200 C 254.620 380.336,254.800 381.146,254.800 382.000 C 254.800 382.854,254.980 383.664,255.200 383.800 C 255.828 384.188,255.668 386.062,254.938 386.869 C 253.960 387.949,252.811 387.760,250.844 386.196 C 249.878 385.428,248.978 384.796,248.844 384.791 C 248.710 384.786,247.905 384.156,247.056 383.391 C 246.207 382.626,245.397 381.999,245.256 381.998 C 245.115 381.997,244.460 381.502,243.800 380.898 C 243.140 380.294,242.105 379.545,241.500 379.232 C 240.895 378.920,240.400 378.530,240.400 378.365 C 240.400 378.200,239.765 377.673,238.989 377.193 C 238.214 376.714,237.355 376.097,237.080 375.823 C 236.806 375.549,235.821 374.845,234.891 374.258 C 233.961 373.670,233.200 373.012,233.200 372.795 C 233.200 372.578,232.930 372.400,232.600 372.400 C 232.270 372.400,232.000 372.232,232.000 372.027 C 232.000 371.822,231.685 371.552,231.300 371.428 C 230.915 371.304,230.025 370.662,229.322 370.001 C 228.619 369.340,227.888 368.800,227.697 368.800 C 227.507 368.800,227.002 368.480,226.575 368.088 C 226.149 367.696,225.080 366.841,224.200 366.188 C 223.320 365.535,222.380 364.793,222.111 364.539 C 221.841 364.286,220.986 363.686,220.211 363.207 C 219.435 362.727,218.800 362.169,218.800 361.967 C 218.800 361.765,218.530 361.600,218.200 361.600 C 217.870 361.600,217.600 361.432,217.600 361.227 C 217.600 361.022,217.285 360.752,216.900 360.628 C 216.515 360.504,215.625 359.862,214.922 359.201 C 214.219 358.540,213.488 358.000,213.297 358.000 C 213.107 358.000,212.602 357.680,212.175 357.288 C 211.749 356.896,210.680 356.041,209.800 355.388 C 208.920 354.735,207.980 353.993,207.711 353.739 C 207.441 353.486,206.586 352.886,205.811 352.407 C 205.035 351.927,204.400 351.408,204.400 351.254 C 204.400 351.099,203.815 350.627,203.100 350.206 C 201.825 349.454,199.536 347.794,196.846 345.669 C 196.101 345.081,195.246 344.456,194.946 344.280 C 194.646 344.104,194.400 343.714,194.400 343.413 C 194.400 343.113,194.265 342.807,194.100 342.733 C 193.691 342.552,191.586 338.323,191.594 337.700 C 191.597 337.425,191.420 337.200,191.200 337.200 C 190.980 337.200,190.800 336.851,190.800 336.424 C 190.800 335.109,185.965 334.070,179.600 334.017 C 178.170 334.005,175.920 333.812,174.600 333.588 C 173.280 333.364,170.583 333.079,168.606 332.956 C 166.630 332.833,164.830 332.615,164.606 332.473 C 164.383 332.331,162.400 332.080,160.200 331.916 C 153.663 331.428,143.410 330.177,142.785 329.791 C 142.550 329.645,141.246 329.438,139.889 329.329 C 138.531 329.221,137.113 328.967,136.737 328.766 C 136.360 328.565,135.061 328.400,133.850 328.400 C 132.638 328.400,131.549 328.242,131.430 328.049 C 131.311 327.855,130.175 327.590,128.906 327.459 C 124.672 327.022,121.750 326.508,120.897 326.052 C 120.433 325.803,119.331 325.600,118.450 325.600 C 117.568 325.600,116.736 325.420,116.600 325.200 C 116.464 324.980,115.564 324.800,114.600 324.800 C 113.636 324.800,112.736 324.620,112.600 324.400 C 112.464 324.180,111.701 324.000,110.905 324.000 C 110.108 324.000,108.904 323.836,108.228 323.635 C 105.134 322.714,100.606 321.664,98.297 321.332 C 97.471 321.213,96.695 320.955,96.574 320.758 C 96.452 320.561,95.654 320.400,94.800 320.400 C 93.946 320.400,93.136 320.220,93.000 320.000 C 92.864 319.780,92.178 319.594,91.476 319.586 C 90.774 319.578,89.750 319.314,89.200 319.000 C 88.650 318.686,87.803 318.422,87.319 318.414 C 84.952 318.376,84.237 317.529,82.239 312.400 C 82.110 312.070,81.845 311.530,81.649 311.200 C 81.453 310.870,81.092 310.105,80.846 309.500 C 80.601 308.895,80.235 307.995,80.033 307.500 C 79.617 306.481,77.739 302.270,77.081 300.882 C 76.615 299.899,75.747 298.944,68.318 291.239 L 63.535 286.279 63.760 284.039 C 63.883 282.808,64.093 280.720,64.227 279.400 C 64.361 278.080,64.635 276.829,64.835 276.620 C 65.036 276.411,65.200 275.649,65.200 274.926 C 65.200 273.619,65.528 271.842,66.406 268.400 C 66.658 267.410,67.023 265.700,67.217 264.600 C 67.654 262.115,68.235 259.183,68.782 256.700 C 69.012 255.655,69.347 254.035,69.526 253.100 C 69.706 252.165,70.066 251.007,70.326 250.526 C 70.587 250.046,70.800 249.021,70.800 248.250 C 70.800 247.478,70.961 246.748,71.158 246.626 C 71.355 246.505,71.610 245.729,71.725 244.903 C 71.978 243.091,72.495 240.950,73.393 238.000 C 73.761 236.790,74.158 235.213,74.275 234.496 C 74.393 233.779,74.649 233.094,74.844 232.973 C 75.040 232.852,75.200 232.144,75.200 231.400 C 75.200 230.656,75.380 229.936,75.600 229.800 C 75.820 229.664,76.000 229.059,76.000 228.456 C 76.000 227.853,76.185 227.175,76.410 226.950 C 76.636 226.724,76.896 225.942,76.988 225.212 C 77.081 224.481,77.346 223.694,77.578 223.462 C 78.348 222.692,78.067 220.863,77.100 220.354 C 76.059 219.805,68.987 214.559,67.800 213.456 C 67.360 213.047,66.068 212.016,64.929 211.165 C 63.790 210.314,62.735 209.419,62.585 209.176 C 62.435 208.934,61.805 208.426,61.185 208.049 C 57.256 205.660,52.800 200.200,52.800 197.775 C 52.800 197.265,52.639 196.748,52.442 196.626 C 52.245 196.505,51.999 195.729,51.895 194.903 C 51.790 194.076,51.402 192.410,51.031 191.200 C 50.660 189.990,50.263 188.550,50.148 188.000 C 50.034 187.450,49.787 186.640,49.600 186.200 C 49.413 185.760,49.149 184.860,49.012 184.200 C 48.597 182.193,48.109 180.308,47.407 178.000 C 47.039 176.790,46.642 175.213,46.525 174.496 C 46.407 173.779,46.151 173.094,45.956 172.973 C 45.760 172.852,45.600 172.144,45.600 171.400 C 45.600 170.656,45.440 169.948,45.244 169.827 C 45.049 169.706,44.792 169.021,44.673 168.304 C 44.393 166.609,43.826 164.336,42.999 161.600 C 42.633 160.390,42.245 158.950,42.137 158.400 C 42.028 157.850,41.787 157.040,41.600 156.600 C 41.413 156.160,41.149 155.260,41.012 154.600 C 40.597 152.593,40.109 150.708,39.407 148.400 C 39.039 147.190,38.642 145.613,38.525 144.896 C 38.407 144.179,38.151 143.494,37.956 143.373 C 37.563 143.130,37.456 140.400,37.840 140.400 C 38.205 140.400,40.973 141.725,41.200 142.008 C 41.310 142.146,41.670 142.381,42.000 142.532 C 42.330 142.682,43.320 143.254,44.200 143.802 C 45.080 144.350,46.520 145.164,47.400 145.611 C 48.280 146.059,49.720 146.869,50.600 147.411 C 51.480 147.954,52.920 148.764,53.800 149.211 C 54.680 149.659,56.120 150.469,57.000 151.012 C 57.880 151.556,59.590 152.513,60.800 153.140 C 62.010 153.767,63.810 154.762,64.800 155.352 C 65.790 155.941,67.680 156.970,69.000 157.637 C 70.320 158.304,72.300 159.363,73.400 159.991 C 74.500 160.619,76.210 161.566,77.200 162.097 C 78.190 162.627,79.680 163.452,80.512 163.930 C 81.344 164.409,82.289 164.800,82.612 164.800 C 82.935 164.800,83.201 164.935,83.203 165.100 C 83.206 165.502,85.519 166.800,86.232 166.800 C 86.545 166.800,86.800 166.959,86.800 167.153 C 86.800 167.348,87.115 167.606,87.500 167.727 C 87.885 167.849,90.040 168.941,92.289 170.154 C 95.854 172.076,97.379 172.460,96.628 171.245 C 96.507 171.050,96.677 170.668,97.004 170.396 C 97.332 170.124,97.600 169.564,97.600 169.151 C 97.600 168.738,97.780 168.400,98.000 168.400 C 98.220 168.400,98.400 168.157,98.400 167.860 C 98.400 167.562,98.850 166.473,99.400 165.438 C 99.950 164.404,100.400 163.297,100.400 162.979 C 100.400 162.660,100.580 162.400,100.800 162.400 C 101.020 162.400,101.200 162.051,101.200 161.624 C 101.200 161.197,101.380 160.736,101.600 160.600 C 101.820 160.464,102.000 160.003,102.000 159.576 C 102.000 159.149,102.180 158.800,102.400 158.800 C 102.620 158.800,102.800 158.597,102.800 158.350 C 102.800 157.718,108.485 146.229,108.878 146.067 C 109.055 145.993,109.200 145.714,109.200 145.445 C 109.200 144.946,110.092 143.155,112.808 138.200 C 113.652 136.660,114.661 134.770,115.050 134.000 C 115.440 133.230,115.867 132.510,116.000 132.400 C 116.133 132.290,116.558 131.570,116.945 130.800 C 117.887 128.926,119.677 125.721,120.743 124.000 C 121.221 123.230,121.720 122.285,121.852 121.900 C 121.985 121.515,122.252 121.200,122.447 121.200 C 122.641 121.200,122.800 120.930,122.800 120.600 C 122.800 120.270,122.980 120.000,123.200 120.000 C 123.420 120.000,123.600 119.640,123.600 119.200 C 123.600 118.760,123.759 118.400,123.953 118.400 C 124.148 118.400,124.413 118.085,124.542 117.700 C 124.671 117.315,125.502 115.857,126.389 114.460 C 127.275 113.063,128.000 111.758,128.000 111.560 C 128.000 111.362,128.180 111.200,128.400 111.200 C 128.620 111.200,128.800 111.008,128.800 110.773 C 128.800 110.539,129.250 109.757,129.800 109.036 C 130.350 108.314,130.800 107.599,130.800 107.445 C 130.800 107.292,130.980 106.949,131.201 106.683 C 131.421 106.417,132.562 104.760,133.736 103.000 C 137.626 97.171,138.007 96.607,138.683 95.672 C 139.052 95.161,139.545 94.402,139.777 93.985 C 140.415 92.839,143.969 87.691,144.524 87.110 C 144.791 86.829,145.857 85.430,146.892 84.000 C 147.927 82.570,148.961 81.182,149.189 80.915 C 149.417 80.648,150.064 79.751,150.626 78.923 C 151.188 78.095,151.784 77.324,151.950 77.209 C 152.117 77.094,152.825 76.158,153.525 75.130 C 154.225 74.101,155.023 73.021,155.299 72.730 C 155.574 72.438,156.282 71.570,156.871 70.800 C 157.461 70.030,158.361 68.929,158.871 68.353 C 159.382 67.778,160.250 66.710,160.800 65.982 C 161.350 65.253,162.160 64.258,162.600 63.771 C 163.040 63.284,163.940 62.196,164.600 61.352 C 165.655 60.004,168.579 56.761,171.012 54.241 C 171.458 53.778,172.130 52.959,172.505 52.421 C 172.880 51.882,174.899 49.689,176.993 47.546 C 179.688 44.789,180.800 43.367,180.800 42.679 C 180.800 40.169,182.911 39.061,185.124 40.410 M166.195 147.954 C 165.624 149.044,162.309 153.376,161.925 153.533 C 161.746 153.607,161.600 153.888,161.600 154.158 C 161.600 154.428,161.282 154.998,160.894 155.425 C 159.586 156.861,157.200 160.303,157.200 160.754 C 157.200 160.999,157.048 161.200,156.863 161.200 C 156.678 161.200,156.187 161.830,155.772 162.600 C 155.357 163.370,154.879 164.000,154.709 164.000 C 154.539 164.000,154.400 164.270,154.400 164.600 C 154.400 164.930,154.220 165.200,154.000 165.200 C 153.780 165.200,153.600 165.361,153.600 165.558 C 153.600 165.969,147.355 175.387,146.300 176.568 C 145.915 176.998,145.600 177.587,145.600 177.875 C 145.600 178.164,145.441 178.400,145.246 178.400 C 145.051 178.400,144.592 179.030,144.227 179.800 C 143.861 180.570,143.425 181.200,143.256 181.200 C 143.087 181.200,142.702 181.830,142.400 182.600 C 142.098 183.370,141.704 184.000,141.525 184.000 C 141.346 184.000,141.200 184.261,141.200 184.580 C 141.200 184.899,140.975 185.304,140.700 185.480 C 140.425 185.656,139.958 186.230,139.662 186.755 C 139.367 187.280,138.763 188.360,138.322 189.155 C 137.880 189.950,137.249 190.904,136.920 191.275 C 136.249 192.032,136.539 192.875,137.361 192.560 C 137.656 192.447,138.004 192.634,138.136 192.977 C 138.267 193.320,138.741 193.600,139.187 193.600 C 139.634 193.600,140.000 193.780,140.000 194.000 C 140.000 194.220,140.173 194.400,140.384 194.400 C 140.727 194.400,151.553 199.442,153.295 200.413 C 153.677 200.626,154.262 200.800,154.595 200.800 C 154.928 200.800,155.200 200.980,155.200 201.200 C 155.200 201.420,155.375 201.600,155.589 201.600 C 155.803 201.600,157.018 202.069,158.289 202.642 C 159.560 203.215,161.410 204.045,162.400 204.486 C 163.390 204.927,164.503 205.442,164.873 205.630 C 165.497 205.948,165.559 204.589,165.734 186.686 C 165.928 166.904,166.510 149.143,167.006 147.900 C 167.382 146.958,166.693 147.004,166.195 147.954 M108.800 241.037 C 108.800 241.567,108.620 242.000,108.400 242.000 C 108.180 242.000,108.000 242.349,108.000 242.776 C 108.000 243.203,107.836 243.654,107.635 243.779 C 107.154 244.075,105.200 248.009,105.200 248.679 C 105.200 248.965,105.020 249.200,104.800 249.200 C 104.580 249.200,104.400 249.538,104.400 249.951 C 104.400 250.364,104.132 250.924,103.804 251.196 C 103.477 251.468,103.295 251.830,103.400 252.000 C 103.505 252.170,103.323 252.532,102.996 252.804 C 102.668 253.076,102.400 253.636,102.400 254.049 C 102.400 254.462,102.220 254.800,102.000 254.800 C 101.780 254.800,101.600 255.250,101.600 255.800 C 101.600 256.350,101.420 256.800,101.200 256.800 C 100.980 256.800,100.800 257.149,100.800 257.576 C 100.800 258.003,100.625 258.461,100.411 258.593 C 100.197 258.726,99.731 259.501,99.377 260.317 C 99.023 261.133,98.568 262.113,98.366 262.495 C 98.165 262.877,98.000 263.462,98.000 263.795 C 98.000 264.128,97.820 264.400,97.600 264.400 C 97.380 264.400,97.200 264.672,97.200 265.005 C 97.200 265.338,97.027 265.923,96.816 266.305 C 95.985 267.807,94.400 271.502,94.400 271.939 C 94.400 272.192,94.220 272.400,94.000 272.400 C 93.780 272.400,93.600 272.762,93.600 273.205 C 93.600 273.938,93.295 274.708,92.335 276.400 C 92.148 276.730,91.890 277.270,91.761 277.600 C 91.633 277.930,91.340 278.650,91.110 279.200 C 90.881 279.750,90.516 280.650,90.300 281.200 C 90.084 281.750,89.748 282.513,89.553 282.895 C 89.359 283.277,89.200 283.840,89.200 284.146 C 89.200 284.452,88.932 284.924,88.604 285.196 C 88.277 285.468,88.091 285.824,88.192 285.986 C 88.292 286.149,88.116 286.624,87.800 287.041 C 87.484 287.458,87.220 288.205,87.213 288.700 C 87.206 289.195,87.020 289.600,86.800 289.600 C 86.580 289.600,86.400 290.039,86.400 290.576 C 86.400 291.113,86.220 291.664,86.000 291.800 C 85.780 291.936,85.600 292.451,85.600 292.944 C 85.600 293.437,85.445 294.011,85.255 294.220 C 84.922 294.585,83.958 297.155,84.121 297.242 C 84.429 297.407,94.225 298.070,102.400 298.480 C 112.899 299.005,149.868 299.076,166.667 298.603 L 176.733 298.320 176.989 297.302 C 177.129 296.742,177.054 296.094,176.822 295.862 C 176.590 295.630,176.400 294.137,176.400 292.544 C 176.400 290.951,176.220 289.536,176.000 289.400 C 175.780 289.264,175.600 288.274,175.600 287.200 C 175.600 286.126,175.420 285.136,175.200 285.000 C 174.980 284.864,174.800 283.874,174.800 282.800 C 174.800 281.726,174.620 280.736,174.400 280.600 C 174.180 280.464,173.994 279.778,173.986 279.076 C 173.978 278.374,173.714 277.350,173.400 276.800 C 173.086 276.250,172.822 274.866,172.814 273.724 C 172.806 272.582,172.620 271.536,172.400 271.400 C 172.180 271.264,172.000 270.562,172.000 269.839 C 172.000 268.717,171.782 268.421,170.500 267.804 C 169.675 267.407,168.687 266.929,168.305 266.741 C 167.923 266.554,167.248 266.400,166.805 266.400 C 166.362 266.400,166.000 266.220,166.000 266.000 C 166.000 265.780,165.770 265.600,165.488 265.600 C 165.206 265.600,163.482 264.970,161.656 264.200 C 159.830 263.430,158.081 262.800,157.768 262.800 C 157.456 262.800,157.200 262.620,157.200 262.400 C 157.200 262.180,156.897 262.000,156.526 262.000 C 156.156 262.000,155.121 261.658,154.226 261.240 C 152.077 260.234,148.389 258.664,146.600 257.993 C 146.160 257.827,144.630 257.152,143.200 256.491 C 141.770 255.831,139.880 254.980,139.000 254.601 C 136.551 253.546,132.613 251.699,128.225 249.548 C 126.039 248.477,124.029 247.600,123.759 247.600 C 123.488 247.600,123.207 247.465,123.133 247.300 C 123.060 247.135,122.010 246.528,120.800 245.950 C 114.398 242.896,113.975 242.675,111.602 241.161 C 109.766 239.990,108.800 239.947,108.800 241.037 M238.800 291.213 C 238.800 291.793,239.072 292.000,239.833 292.000 C 241.055 292.000,240.960 291.225,239.679 290.751 C 238.961 290.485,238.800 290.570,238.800 291.213 " stroke="none" fill="#ffffff" fill-rule="evenodd"></path><path id="path4" d="M181.629 40.654 C 181.173 41.234,180.800 42.145,180.800 42.679 C 180.800 43.367,179.688 44.789,176.993 47.546 C 174.899 49.689,172.880 51.882,172.505 52.421 C 172.130 52.959,171.458 53.778,171.012 54.241 C 168.579 56.761,165.655 60.004,164.600 61.352 C 163.940 62.196,163.040 63.284,162.600 63.771 C 162.160 64.258,161.350 65.253,160.800 65.982 C 160.250 66.710,159.382 67.778,158.871 68.353 C 158.361 68.929,157.461 70.030,156.871 70.800 C 156.282 71.570,155.574 72.438,155.299 72.730 C 155.023 73.021,154.225 74.101,153.525 75.130 C 152.825 76.158,152.117 77.094,151.950 77.209 C 151.784 77.324,151.188 78.095,150.626 78.923 C 150.064 79.751,149.417 80.648,149.189 80.915 C 148.961 81.182,147.927 82.570,146.892 84.000 C 145.857 85.430,144.791 86.829,144.524 87.110 C 143.969 87.691,140.415 92.839,139.777 93.985 C 139.545 94.402,139.052 95.161,138.683 95.672 C 138.007 96.607,137.626 97.171,133.736 103.000 C 132.562 104.760,131.421 106.417,131.201 106.683 C 130.980 106.949,130.800 107.292,130.800 107.445 C 130.800 107.599,130.350 108.314,129.800 109.036 C 129.250 109.757,128.800 110.539,128.800 110.773 C 128.800 111.008,128.620 111.200,128.400 111.200 C 128.180 111.200,128.000 111.362,128.000 111.560 C 128.000 111.758,127.275 113.063,126.389 114.460 C 125.502 115.857,124.671 117.315,124.542 117.700 C 124.413 118.085,124.148 118.400,123.953 118.400 C 123.759 118.400,123.600 118.760,123.600 119.200 C 123.600 119.640,123.420 120.000,123.200 120.000 C 122.980 120.000,122.800 120.270,122.800 120.600 C 122.800 120.930,122.641 121.200,122.447 121.200 C 122.252 121.200,121.985 121.515,121.852 121.900 C 121.720 122.285,121.221 123.230,120.743 124.000 C 119.677 125.721,117.887 128.926,116.945 130.800 C 116.558 131.570,116.133 132.290,116.000 132.400 C 115.867 132.510,115.440 133.230,115.050 134.000 C 114.661 134.770,113.652 136.660,112.808 138.200 C 110.092 143.155,109.200 144.946,109.200 145.445 C 109.200 145.714,109.055 145.993,108.878 146.067 C 108.485 146.229,102.800 157.718,102.800 158.350 C 102.800 158.597,102.620 158.800,102.400 158.800 C 102.180 158.800,102.000 159.149,102.000 159.576 C 102.000 160.003,101.820 160.464,101.600 160.600 C 101.380 160.736,101.200 161.197,101.200 161.624 C 101.200 162.051,101.020 162.400,100.800 162.400 C 100.580 162.400,100.400 162.660,100.400 162.979 C 100.400 163.297,99.950 164.404,99.400 165.438 C 98.850 166.473,98.400 167.562,98.400 167.860 C 98.400 168.157,98.220 168.400,98.000 168.400 C 97.780 168.400,97.600 168.738,97.600 169.151 C 97.600 169.564,97.360 170.101,97.066 170.345 C 95.837 171.365,96.586 172.555,99.433 174.100 C 102.140 175.569,132.062 190.480,134.770 191.708 C 136.312 192.408,136.604 192.198,138.314 189.153 C 138.760 188.359,139.367 187.280,139.662 186.755 C 139.958 186.230,140.425 185.656,140.700 185.480 C 140.975 185.304,141.200 184.899,141.200 184.580 C 141.200 184.261,141.346 184.000,141.525 184.000 C 141.704 184.000,142.098 183.370,142.400 182.600 C 142.702 181.830,143.087 181.200,143.256 181.200 C 143.425 181.200,143.861 180.570,144.227 179.800 C 144.592 179.030,145.051 178.400,145.246 178.400 C 145.441 178.400,145.600 178.164,145.600 177.875 C 145.600 177.587,145.915 176.998,146.300 176.568 C 147.355 175.387,153.600 165.969,153.600 165.558 C 153.600 165.361,153.780 165.200,154.000 165.200 C 154.220 165.200,154.400 164.930,154.400 164.600 C 154.400 164.270,154.539 164.000,154.709 164.000 C 154.879 164.000,155.357 163.370,155.772 162.600 C 156.187 161.830,156.678 161.200,156.863 161.200 C 157.048 161.200,157.200 160.999,157.200 160.754 C 157.200 160.303,159.586 156.861,160.894 155.425 C 161.282 154.998,161.600 154.428,161.600 154.158 C 161.600 153.888,161.746 153.607,161.925 153.533 C 162.309 153.376,165.624 149.044,166.195 147.954 C 166.693 147.004,167.381 146.958,167.010 147.900 C 165.978 150.523,165.367 209.333,166.306 215.600 C 166.604 217.589,166.638 216.696,166.448 211.800 C 165.897 197.582,166.317 171.941,167.464 149.700 C 167.569 147.665,167.528 146.000,167.374 146.000 C 167.036 146.000,165.201 148.086,165.200 148.471 C 165.200 148.621,164.971 148.981,164.692 149.271 C 164.412 149.562,163.470 150.790,162.599 152.000 C 161.727 153.210,160.876 154.260,160.707 154.333 C 160.538 154.407,160.400 154.707,160.400 155.000 C 160.400 155.293,160.233 155.593,160.030 155.667 C 159.604 155.820,148.800 171.934,148.800 172.415 C 148.800 172.590,148.662 172.793,148.493 172.867 C 148.219 172.986,146.038 175.969,145.000 177.646 C 144.780 178.001,143.925 179.310,143.100 180.554 C 142.275 181.798,141.600 182.977,141.600 183.174 C 141.600 183.372,141.450 183.593,141.267 183.667 C 140.832 183.841,138.000 188.298,138.000 188.808 C 138.000 189.023,137.820 189.200,137.600 189.200 C 137.380 189.200,137.194 189.425,137.187 189.700 C 137.180 189.975,136.918 190.539,136.605 190.952 C 135.941 191.830,136.955 192.230,125.048 186.391 C 121.019 184.416,117.515 182.800,117.262 182.800 C 117.008 182.800,116.800 182.620,116.800 182.400 C 116.800 182.180,116.476 182.000,116.080 182.000 C 115.684 182.000,115.189 181.835,114.980 181.634 C 114.574 181.243,109.532 178.584,101.900 174.737 C 99.315 173.434,97.200 172.217,97.200 172.033 C 97.200 171.287,101.495 161.821,105.826 153.021 C 106.362 151.933,106.800 150.823,106.800 150.555 C 106.800 150.286,106.935 150.007,107.100 149.933 C 107.265 149.860,108.227 148.180,109.238 146.200 C 110.249 144.220,111.982 140.890,113.091 138.800 C 114.199 136.710,115.532 134.190,116.053 133.200 C 116.574 132.210,117.091 131.310,117.203 131.200 C 117.315 131.090,117.928 130.010,118.566 128.800 C 119.204 127.590,120.058 126.122,120.463 125.538 C 120.868 124.954,121.200 124.371,121.200 124.242 C 121.200 124.114,122.010 122.745,123.000 121.200 C 123.990 119.655,124.800 118.290,124.800 118.166 C 124.800 118.042,125.610 116.688,126.600 115.158 C 127.590 113.627,128.400 112.270,128.400 112.141 C 128.400 112.012,129.030 111.049,129.800 110.000 C 130.570 108.951,131.200 107.974,131.200 107.829 C 131.200 107.608,134.094 103.131,135.098 101.799 C 135.264 101.579,137.534 98.249,140.142 94.399 C 142.750 90.550,145.863 86.140,147.059 84.600 C 148.256 83.060,149.940 80.784,150.803 79.543 C 151.666 78.301,152.609 77.041,152.899 76.743 C 153.189 76.444,153.854 75.591,154.378 74.848 C 156.196 72.263,166.501 59.778,169.740 56.235 C 171.533 54.274,173.630 51.934,174.399 51.035 C 175.168 50.136,176.949 48.236,178.355 46.814 C 179.761 45.391,181.065 43.673,181.252 42.995 C 181.903 40.638,182.547 40.123,184.068 40.746 C 184.800 41.046,185.940 41.388,186.600 41.505 C 187.260 41.622,188.430 42.114,189.200 42.597 C 189.970 43.080,191.050 43.575,191.600 43.698 C 192.541 43.907,193.854 44.403,198.900 46.453 C 200.055 46.923,202.620 47.899,204.600 48.622 C 211.155 51.018,211.687 51.225,212.880 51.842 C 213.532 52.178,215.136 52.796,216.446 53.215 C 217.756 53.633,219.406 54.243,220.114 54.570 C 220.821 54.897,222.660 55.602,224.200 56.137 C 225.740 56.671,227.990 57.513,229.200 58.007 C 230.410 58.501,233.290 59.580,235.600 60.406 C 237.910 61.231,240.117 62.037,240.503 62.197 C 241.368 62.555,241.854 64.293,241.332 65.160 C 241.120 65.512,240.264 67.960,239.430 70.600 C 238.595 73.240,237.776 75.760,237.609 76.200 C 236.761 78.436,235.041 85.049,234.384 88.600 C 233.669 92.458,233.330 93.867,232.978 94.431 C 232.783 94.744,232.476 95.990,232.296 97.200 C 232.116 98.410,231.790 100.570,231.572 102.000 C 230.981 105.871,230.437 110.042,230.098 113.300 C 229.932 114.895,229.619 116.470,229.403 116.800 C 228.562 118.085,227.734 135.421,228.400 137.801 C 228.730 138.980,228.733 140.306,228.409 142.803 C 228.167 144.671,227.908 151.780,227.835 158.600 C 227.703 170.831,227.706 170.872,227.999 161.600 C 228.162 156.430,228.490 150.310,228.728 148.000 C 228.989 145.463,229.064 140.300,228.918 134.962 C 228.741 128.481,228.799 126.048,229.138 125.838 C 229.436 125.654,229.600 124.170,229.600 121.653 C 229.600 118.843,229.764 117.536,230.187 116.976 C 230.574 116.466,230.779 115.216,230.787 113.324 C 230.794 111.742,230.980 110.336,231.200 110.200 C 231.420 110.064,231.600 108.613,231.600 106.976 C 231.600 105.259,231.769 104.000,232.000 104.000 C 232.221 104.000,232.400 102.960,232.400 101.680 C 232.400 100.404,232.563 99.189,232.761 98.980 C 232.960 98.771,233.212 97.790,233.321 96.800 C 233.540 94.814,234.299 91.785,234.847 90.705 C 235.041 90.323,235.200 89.209,235.200 88.229 C 235.200 87.249,235.380 86.336,235.600 86.200 C 235.820 86.064,236.000 85.254,236.000 84.400 C 236.000 83.546,236.180 82.736,236.400 82.600 C 236.620 82.464,236.800 82.024,236.800 81.622 C 236.800 81.220,237.069 80.376,237.398 79.746 C 237.726 79.116,237.996 78.116,237.998 77.524 C 237.999 76.932,238.180 76.336,238.400 76.200 C 238.620 76.064,238.800 75.423,238.800 74.776 C 238.800 74.129,238.980 73.600,239.200 73.600 C 239.420 73.600,239.600 73.071,239.600 72.424 C 239.600 71.777,239.780 71.136,240.000 71.000 C 240.220 70.864,240.400 70.328,240.400 69.809 C 240.400 69.290,240.700 68.265,241.068 67.532 C 242.304 65.066,242.400 64.813,242.400 64.036 C 242.400 62.953,240.133 60.800,238.993 60.800 C 238.473 60.800,237.936 60.620,237.800 60.400 C 237.664 60.180,237.034 60.000,236.400 60.000 C 235.766 60.000,235.136 59.820,235.000 59.600 C 234.864 59.380,234.418 59.200,234.009 59.200 C 233.205 59.200,230.685 57.990,230.467 57.500 C 230.393 57.335,229.904 57.200,229.379 57.200 C 228.854 57.200,227.783 56.840,227.000 56.400 C 226.217 55.960,225.236 55.600,224.820 55.600 C 224.405 55.600,223.465 55.300,222.732 54.932 C 220.305 53.716,220.016 53.600,219.405 53.600 C 219.072 53.600,218.800 53.420,218.800 53.200 C 218.800 52.980,218.271 52.800,217.624 52.800 C 216.977 52.800,216.336 52.620,216.200 52.400 C 216.064 52.180,215.630 52.000,215.236 52.000 C 214.842 52.000,213.673 51.550,212.638 51.000 C 211.604 50.450,210.503 50.000,210.191 50.000 C 209.879 50.000,208.983 49.640,208.200 49.200 C 207.417 48.760,206.419 48.400,205.982 48.400 C 205.546 48.400,204.877 48.246,204.495 48.059 C 204.113 47.871,203.080 47.401,202.200 47.015 C 201.320 46.628,200.287 46.151,199.905 45.956 C 199.523 45.760,198.944 45.600,198.618 45.600 C 198.291 45.600,197.422 45.262,196.685 44.848 C 195.949 44.434,194.775 43.970,194.078 43.817 C 193.380 43.664,192.706 43.372,192.581 43.169 C 192.455 42.966,192.034 42.800,191.644 42.800 C 191.254 42.800,190.064 42.359,188.998 41.819 C 187.933 41.280,186.923 40.924,186.755 41.028 C 186.586 41.132,185.852 40.854,185.124 40.410 C 183.366 39.338,182.623 39.390,181.629 40.654 M227.853 181.600 C 228.043 187.765,228.755 203.210,229.023 207.000 C 229.133 208.540,229.394 212.770,229.605 216.400 C 229.816 220.030,230.160 223.720,230.370 224.600 C 230.776 226.308,230.722 224.423,230.016 212.200 C 229.826 208.900,229.459 201.160,229.202 195.000 C 228.945 188.840,228.502 182.180,228.217 180.200 L 227.698 176.600 227.853 181.600 M78.006 222.100 C 78.010 222.724,78.113 222.841,78.341 222.482 C 78.586 222.096,79.778 222.702,83.035 224.868 C 85.436 226.465,87.760 227.975,88.200 228.224 C 89.391 228.897,91.188 229.973,94.844 232.200 C 101.317 236.144,105.286 238.417,107.104 239.221 C 108.792 239.969,108.860 239.667,105.449 246.600 C 103.825 249.900,101.999 253.680,101.389 255.000 C 100.780 256.320,99.512 259.020,98.571 261.000 C 95.151 268.196,93.455 272.033,92.735 274.200 C 92.443 275.080,92.108 275.890,91.991 276.000 C 91.804 276.176,90.947 278.148,89.993 280.600 C 89.327 282.311,86.840 288.001,86.367 288.895 C 86.165 289.277,86.000 289.828,86.000 290.119 C 86.000 290.411,85.640 291.395,85.200 292.306 C 84.760 293.216,84.400 294.246,84.400 294.595 C 84.400 294.943,84.114 295.664,83.766 296.196 C 82.944 297.450,83.236 297.857,85.003 297.923 C 85.793 297.953,86.635 298.098,86.874 298.246 C 90.155 300.273,179.022 299.977,177.764 297.942 C 177.469 297.464,177.350 296.461,177.060 292.000 C 176.967 290.570,176.684 288.410,176.430 287.200 C 175.871 284.537,175.311 281.557,174.963 279.400 C 174.821 278.520,174.545 277.599,174.348 277.354 C 174.152 277.109,173.813 275.669,173.594 274.154 C 172.909 269.416,172.709 268.627,171.944 267.646 C 171.216 266.712,171.200 266.710,171.200 267.546 C 171.200 268.016,171.380 268.400,171.600 268.400 C 171.820 268.400,172.000 269.019,172.000 269.776 C 172.000 270.533,172.180 271.264,172.400 271.400 C 172.620 271.536,172.806 272.582,172.814 273.724 C 172.822 274.866,173.086 276.250,173.400 276.800 C 173.714 277.350,173.978 278.374,173.986 279.076 C 173.994 279.778,174.180 280.464,174.400 280.600 C 174.620 280.736,174.800 281.726,174.800 282.800 C 174.800 283.874,174.980 284.864,175.200 285.000 C 175.420 285.136,175.600 286.126,175.600 287.200 C 175.600 288.274,175.780 289.264,176.000 289.400 C 176.220 289.536,176.400 290.951,176.400 292.544 C 176.400 294.137,176.590 295.630,176.822 295.862 C 177.054 296.094,177.129 296.742,176.989 297.302 L 176.733 298.320 166.667 298.603 C 149.868 299.076,112.899 299.005,102.400 298.480 C 94.225 298.070,84.429 297.407,84.121 297.242 C 83.958 297.155,84.922 294.585,85.255 294.220 C 85.445 294.011,85.600 293.437,85.600 292.944 C 85.600 292.451,85.780 291.936,86.000 291.800 C 86.220 291.664,86.400 291.113,86.400 290.576 C 86.400 290.039,86.580 289.600,86.800 289.600 C 87.020 289.600,87.206 289.195,87.213 288.700 C 87.220 288.205,87.484 287.458,87.800 287.041 C 88.116 286.624,88.292 286.149,88.192 285.986 C 88.091 285.824,88.277 285.468,88.604 285.196 C 88.932 284.924,89.200 284.452,89.200 284.146 C 89.200 283.840,89.359 283.277,89.553 282.895 C 89.918 282.178,90.614 280.547,91.300 278.800 C 91.516 278.250,91.853 277.530,92.049 277.200 C 92.245 276.870,92.507 276.330,92.632 276.000 C 92.756 275.670,93.025 275.087,93.229 274.705 C 93.433 274.323,93.600 273.648,93.600 273.205 C 93.600 272.762,93.780 272.400,94.000 272.400 C 94.220 272.400,94.400 272.192,94.400 271.939 C 94.400 271.502,95.985 267.807,96.816 266.305 C 97.027 265.923,97.200 265.338,97.200 265.005 C 97.200 264.672,97.380 264.400,97.600 264.400 C 97.820 264.400,98.000 264.128,98.000 263.795 C 98.000 263.462,98.165 262.877,98.366 262.495 C 98.568 262.113,99.023 261.133,99.377 260.317 C 99.731 259.501,100.197 258.726,100.411 258.593 C 100.625 258.461,100.800 258.003,100.800 257.576 C 100.800 257.149,100.980 256.800,101.200 256.800 C 101.420 256.800,101.600 256.350,101.600 255.800 C 101.600 255.250,101.780 254.800,102.000 254.800 C 102.220 254.800,102.400 254.462,102.400 254.049 C 102.400 253.636,102.668 253.076,102.996 252.804 C 103.323 252.532,103.505 252.170,103.400 252.000 C 103.295 251.830,103.477 251.468,103.804 251.196 C 104.132 250.924,104.400 250.364,104.400 249.951 C 104.400 249.538,104.580 249.200,104.800 249.200 C 105.020 249.200,105.200 248.965,105.200 248.679 C 105.200 248.009,107.154 244.075,107.635 243.779 C 107.836 243.654,108.000 243.203,108.000 242.776 C 108.000 242.349,108.180 242.000,108.400 242.000 C 108.620 242.000,108.800 241.539,108.800 240.976 C 108.800 240.274,108.957 240.041,109.300 240.235 C 109.639 240.427,109.672 240.383,109.400 240.100 C 109.180 239.870,107.560 238.915,105.800 237.978 C 104.040 237.040,102.122 235.941,101.538 235.536 C 100.954 235.131,100.371 234.800,100.242 234.800 C 100.114 234.800,98.745 233.990,97.200 233.000 C 95.655 232.010,94.310 231.200,94.210 231.200 C 94.110 231.200,92.493 230.210,90.618 229.000 C 88.742 227.790,87.138 226.800,87.053 226.800 C 86.969 226.800,85.042 225.540,82.772 224.000 C 78.193 220.894,77.997 220.816,78.006 222.100 M77.410 223.585 C 77.261 223.825,77.067 224.589,76.980 225.281 C 76.892 225.973,76.636 226.724,76.410 226.950 C 76.185 227.175,76.000 227.853,76.000 228.456 C 76.000 229.059,75.820 229.664,75.600 229.800 C 75.380 229.936,75.200 230.656,75.200 231.400 C 75.200 232.144,75.040 232.852,74.844 232.973 C 74.649 233.094,74.393 233.779,74.275 234.496 C 74.158 235.213,73.761 236.790,73.393 238.000 C 72.495 240.950,71.978 243.091,71.725 244.903 C 71.610 245.729,71.355 246.505,71.158 246.626 C 70.961 246.748,70.815 247.332,70.832 247.924 L 70.865 249.000 71.414 247.800 C 71.717 247.140,71.972 246.026,71.982 245.324 C 71.992 244.622,72.180 243.936,72.400 243.800 C 72.620 243.664,72.800 243.171,72.800 242.705 C 72.800 242.238,72.964 241.304,73.165 240.628 C 74.303 236.794,74.749 235.237,75.120 233.800 C 75.980 230.475,76.418 228.920,77.239 226.276 C 78.009 223.797,78.092 222.480,77.410 223.585 M166.891 227.000 C 166.880 227.880,167.010 229.500,167.182 230.600 C 167.431 232.203,167.496 232.322,167.507 231.200 C 167.515 230.430,167.384 228.810,167.217 227.600 C 166.952 225.684,166.910 225.607,166.891 227.000 M230.646 229.785 C 230.761 231.757,231.028 233.647,231.239 233.985 C 231.716 234.751,231.446 230.609,230.849 228.000 C 230.498 226.467,230.468 226.732,230.646 229.785 M168.109 240.800 C 168.109 241.790,168.187 242.195,168.282 241.700 C 168.378 241.205,168.378 240.395,168.282 239.900 C 168.187 239.405,168.109 239.810,168.109 240.800 M231.693 240.800 C 231.693 241.570,231.775 241.885,231.876 241.500 C 231.976 241.115,231.976 240.485,231.876 240.100 C 231.775 239.715,231.693 240.030,231.693 240.800 M232.487 248.800 C 232.483 249.350,232.624 250.250,232.800 250.800 C 233.231 252.144,233.231 250.692,232.800 249.000 C 232.526 247.922,232.494 247.902,232.487 248.800 M70.405 250.298 C 70.117 250.904,69.728 252.165,69.540 253.100 C 69.353 254.035,69.012 255.655,68.782 256.700 C 67.344 263.230,67.044 265.181,67.618 264.265 C 67.871 263.862,68.233 262.602,68.423 261.465 C 68.612 260.329,68.955 258.545,69.184 257.500 C 69.413 256.455,69.762 254.835,69.959 253.900 C 70.157 252.965,70.514 251.582,70.752 250.826 C 71.292 249.118,71.104 248.831,70.405 250.298 M169.687 256.000 C 169.683 256.550,169.824 257.450,170.000 258.000 C 170.431 259.344,170.431 257.892,170.000 256.200 C 169.726 255.122,169.694 255.102,169.687 256.000 M233.462 256.600 C 233.596 257.480,233.772 258.275,233.853 258.367 C 234.156 258.710,233.929 256.568,233.581 255.800 C 233.329 255.242,233.293 255.485,233.462 256.600 M170.468 262.200 C 170.462 262.640,170.611 263.360,170.800 263.800 C 171.238 264.819,171.238 263.768,170.800 262.400 C 170.543 261.596,170.477 261.557,170.468 262.200 M362.507 264.991 C 362.107 265.446,362.170 265.600,362.848 265.815 C 363.780 266.111,364.634 265.502,364.222 264.835 C 363.857 264.244,363.104 264.313,362.507 264.991 M66.803 266.710 C 66.264 268.167,65.829 270.384,65.370 274.000 C 65.244 274.990,64.983 276.160,64.790 276.600 C 64.461 277.350,64.308 278.448,63.756 284.039 L 63.535 286.279 68.318 291.239 C 75.747 298.944,76.615 299.899,77.081 300.882 C 77.739 302.270,79.617 306.481,80.033 307.500 C 80.235 307.995,80.601 308.895,80.846 309.500 C 81.092 310.105,81.453 310.870,81.649 311.200 C 81.845 311.530,82.110 312.070,82.239 312.400 C 84.237 317.529,84.952 318.376,87.319 318.414 C 87.803 318.422,88.650 318.686,89.200 319.000 C 89.750 319.314,90.774 319.578,91.476 319.586 C 92.178 319.594,92.864 319.780,93.000 320.000 C 93.136 320.220,93.946 320.400,94.800 320.400 C 95.654 320.400,96.452 320.561,96.574 320.758 C 96.695 320.955,97.471 321.213,98.297 321.332 C 100.606 321.664,105.134 322.714,108.228 323.635 C 108.904 323.836,110.108 324.000,110.905 324.000 C 111.701 324.000,112.464 324.180,112.600 324.400 C 112.736 324.620,113.636 324.800,114.600 324.800 C 115.564 324.800,116.464 324.980,116.600 325.200 C 116.736 325.420,117.568 325.600,118.450 325.600 C 119.331 325.600,120.433 325.803,120.897 326.052 C 121.750 326.508,124.672 327.022,128.906 327.459 C 130.175 327.590,131.311 327.855,131.430 328.049 C 131.549 328.242,132.638 328.400,133.850 328.400 C 135.061 328.400,136.360 328.565,136.737 328.766 C 137.113 328.967,138.531 329.221,139.889 329.329 C 141.246 329.438,142.550 329.645,142.785 329.791 C 143.410 330.177,153.663 331.428,160.200 331.916 C 162.400 332.080,164.383 332.331,164.606 332.473 C 164.830 332.615,166.630 332.833,168.606 332.956 C 170.583 333.079,173.280 333.364,174.600 333.588 C 175.920 333.812,178.170 334.005,179.600 334.017 C 185.965 334.070,190.800 335.109,190.800 336.424 C 190.800 336.851,190.980 337.200,191.200 337.200 C 191.420 337.200,191.597 337.425,191.594 337.700 C 191.586 338.323,193.691 342.552,194.100 342.733 C 194.265 342.807,194.400 343.113,194.400 343.413 C 194.400 343.714,194.646 344.104,194.946 344.280 C 195.246 344.456,196.101 345.081,196.846 345.669 C 199.536 347.794,201.825 349.454,203.100 350.206 C 203.815 350.627,204.400 351.099,204.400 351.254 C 204.400 351.408,205.035 351.927,205.811 352.407 C 206.586 352.886,207.441 353.486,207.711 353.739 C 207.980 353.993,208.920 354.735,209.800 355.388 C 210.680 356.041,211.749 356.896,212.175 357.288 C 212.602 357.680,213.107 358.000,213.297 358.000 C 213.488 358.000,214.219 358.540,214.922 359.201 C 215.625 359.862,216.515 360.504,216.900 360.628 C 217.285 360.752,217.600 361.022,217.600 361.227 C 217.600 361.432,217.870 361.600,218.200 361.600 C 218.530 361.600,218.800 361.765,218.800 361.967 C 218.800 362.169,219.435 362.727,220.211 363.207 C 220.986 363.686,221.841 364.286,222.111 364.539 C 222.380 364.793,223.320 365.535,224.200 366.188 C 225.080 366.841,226.149 367.696,226.575 368.088 C 227.002 368.480,227.507 368.800,227.697 368.800 C 227.888 368.800,228.619 369.340,229.322 370.001 C 230.025 370.662,230.915 371.304,231.300 371.428 C 231.685 371.552,232.000 371.822,232.000 372.027 C 232.000 372.232,232.270 372.400,232.600 372.400 C 232.930 372.400,233.200 372.578,233.200 372.795 C 233.200 373.012,233.961 373.670,234.891 374.258 C 235.821 374.845,236.806 375.549,237.080 375.823 C 237.355 376.097,238.214 376.714,238.989 377.193 C 239.765 377.673,240.400 378.200,240.400 378.365 C 240.400 378.530,240.895 378.920,241.500 379.232 C 242.105 379.545,243.140 380.294,243.800 380.898 C 244.460 381.502,245.115 381.997,245.256 381.998 C 245.397 381.999,246.207 382.626,247.056 383.391 C 247.905 384.156,248.710 384.786,248.844 384.791 C 248.978 384.796,249.878 385.428,250.844 386.196 C 252.811 387.760,253.960 387.949,254.938 386.869 C 255.668 386.062,255.828 384.188,255.200 383.800 C 254.980 383.664,254.800 382.854,254.800 382.000 C 254.800 381.146,254.620 380.336,254.400 380.200 C 254.180 380.064,254.000 379.074,254.000 378.000 C 254.000 376.926,253.820 375.936,253.600 375.800 C 253.380 375.664,253.194 374.888,253.187 374.076 C 253.180 373.264,252.910 372.251,252.587 371.824 C 252.264 371.396,252.000 370.282,252.000 369.347 C 252.000 368.412,251.820 367.536,251.600 367.400 C 251.380 367.264,251.200 366.443,251.200 365.576 C 251.200 364.709,251.020 364.000,250.800 364.000 C 250.580 364.000,250.400 363.010,250.400 361.800 C 250.400 360.590,250.220 359.600,250.000 359.600 C 249.780 359.600,249.600 358.811,249.600 357.846 C 249.600 356.881,249.331 355.576,249.002 354.946 C 248.674 354.316,248.404 353.035,248.402 352.100 C 248.401 351.165,248.220 350.400,248.000 350.400 C 247.780 350.400,247.600 349.511,247.600 348.424 C 247.600 347.337,247.421 346.337,247.203 346.202 C 246.981 346.065,246.819 344.277,246.836 342.159 C 246.853 340.071,246.691 338.145,246.476 337.881 C 246.262 337.616,245.998 337.040,245.889 336.600 C 245.756 336.059,245.688 336.188,245.677 337.000 C 245.668 337.660,245.887 338.827,246.164 339.594 C 246.530 340.608,246.556 341.352,246.258 342.322 C 245.967 343.270,245.986 344.169,246.324 345.433 C 246.586 346.411,246.800 347.671,246.800 348.232 C 246.800 348.793,246.974 349.577,247.186 349.974 C 247.542 350.639,247.826 351.940,248.804 357.400 C 250.083 364.529,250.600 366.952,250.971 367.553 C 251.138 367.824,251.428 368.980,251.615 370.123 C 251.801 371.265,252.157 373.010,252.405 374.000 C 252.653 374.990,253.011 376.700,253.200 377.800 C 253.389 378.900,253.738 380.610,253.975 381.600 C 254.939 385.627,254.961 386.093,254.207 386.644 C 253.524 387.144,252.249 386.843,251.600 386.030 C 251.490 385.892,248.430 383.566,244.800 380.862 C 241.170 378.158,237.700 375.566,237.088 375.104 C 236.477 374.641,235.458 373.888,234.824 373.431 C 234.190 372.974,230.910 370.517,227.535 367.971 C 224.161 365.426,220.927 362.996,220.349 362.571 C 219.771 362.147,213.947 357.770,207.405 352.844 C 194.664 343.250,194.608 343.195,192.042 337.521 C 190.359 333.800,190.115 333.695,182.589 333.436 C 179.502 333.330,176.712 333.143,176.389 333.021 C 175.848 332.816,172.625 332.469,163.000 331.579 C 159.677 331.272,155.734 330.865,148.600 330.094 C 147.060 329.928,145.608 329.668,145.373 329.517 C 145.139 329.367,143.429 329.031,141.573 328.771 C 134.209 327.740,133.312 327.609,130.900 327.212 C 129.525 326.985,127.365 326.661,126.100 326.491 C 124.835 326.321,123.607 326.060,123.371 325.911 C 123.135 325.762,121.785 325.433,120.371 325.181 C 117.644 324.693,115.456 324.277,112.200 323.626 C 111.100 323.406,109.299 323.078,108.198 322.897 C 107.097 322.716,105.986 322.439,105.729 322.280 C 105.472 322.121,104.303 321.795,103.131 321.555 C 101.959 321.315,100.280 320.948,99.400 320.738 C 98.520 320.528,97.080 320.202,96.200 320.013 C 95.320 319.825,92.800 319.188,90.600 318.597 C 88.400 318.007,86.223 317.436,85.762 317.327 C 85.000 317.148,84.585 316.440,83.221 313.000 C 83.046 312.560,82.411 311.120,81.809 309.800 C 81.207 308.480,80.573 307.040,80.399 306.600 C 80.226 306.160,79.615 304.792,79.042 303.560 C 78.469 302.328,78.000 301.117,78.000 300.870 C 78.000 300.622,76.513 298.930,74.695 297.109 C 65.346 287.749,63.895 285.969,64.178 284.212 C 64.321 283.325,64.604 281.520,64.808 280.200 C 65.012 278.880,65.363 276.765,65.589 275.500 C 65.815 274.235,66.164 272.255,66.364 271.100 C 66.564 269.945,66.931 268.211,67.178 267.247 C 67.743 265.046,67.530 264.742,66.803 266.710 M236.068 278.000 C 236.088 279.039,236.718 280.746,236.732 279.800 C 236.738 279.360,236.589 278.640,236.400 278.200 C 236.189 277.710,236.061 277.632,236.068 278.000 M236.868 284.000 C 236.888 285.039,237.518 286.746,237.532 285.800 C 237.538 285.360,237.389 284.640,237.200 284.200 C 236.989 283.710,236.861 283.632,236.868 284.000 M237.759 290.387 C 238.119 292.338,238.340 292.454,241.440 292.320 L 244.200 292.200 242.600 291.704 C 241.585 291.390,240.951 291.353,240.867 291.604 C 240.624 292.325,238.801 292.058,238.787 291.300 C 238.780 290.915,238.488 290.240,238.139 289.800 C 237.533 289.038,237.515 289.066,237.759 290.387 M245.800 293.014 C 246.460 293.317,247.394 293.572,247.876 293.582 C 248.358 293.592,248.864 293.780,249.000 294.000 C 249.136 294.220,249.822 294.388,250.524 294.373 C 251.472 294.353,250.978 294.098,248.600 293.382 C 245.062 292.317,243.962 292.173,245.800 293.014 M252.200 294.800 C 252.336 295.020,252.842 295.187,253.324 295.172 C 254.169 295.145,254.171 295.131,253.400 294.800 C 252.299 294.327,251.908 294.327,252.200 294.800 M255.000 295.600 C 255.136 295.820,255.732 295.987,256.324 295.972 C 257.285 295.947,257.314 295.907,256.600 295.600 C 255.489 295.122,254.705 295.122,255.000 295.600 M258.600 296.614 C 259.260 296.917,260.194 297.172,260.676 297.182 C 261.158 297.192,261.664 297.380,261.800 297.600 C 261.936 297.820,262.622 297.988,263.324 297.973 C 264.272 297.953,263.778 297.698,261.400 296.982 C 257.862 295.917,256.762 295.773,258.600 296.614 M265.200 298.400 C 265.530 298.613,266.250 298.773,266.800 298.754 L 267.800 298.720 266.800 298.400 C 265.258 297.906,264.436 297.906,265.200 298.400 M268.600 299.200 C 268.736 299.420,269.242 299.597,269.724 299.594 C 270.436 299.589,270.488 299.515,270.000 299.200 C 269.212 298.691,268.285 298.691,268.600 299.200 M271.800 299.903 C 272.020 300.130,273.100 300.525,274.200 300.781 C 275.300 301.036,276.920 301.428,277.800 301.652 C 278.680 301.875,280.030 302.132,280.800 302.223 L 282.200 302.388 281.000 301.982 C 280.340 301.759,278.990 301.393,278.000 301.169 C 275.787 300.667,273.722 300.154,272.400 299.777 C 271.717 299.582,271.527 299.622,271.800 299.903 M282.600 302.800 C 282.736 303.020,283.332 303.187,283.924 303.172 C 284.885 303.147,284.914 303.107,284.200 302.800 C 283.089 302.322,282.305 302.322,282.600 302.800 M286.000 303.600 C 286.330 303.813,286.960 303.978,287.400 303.966 L 288.200 303.944 287.400 303.600 C 286.204 303.086,285.205 303.086,286.000 303.600 M289.600 304.569 C 290.370 304.883,291.459 305.153,292.020 305.170 C 292.581 305.186,293.234 305.394,293.471 305.631 C 293.708 305.868,294.419 306.003,295.051 305.931 C 296.223 305.797,292.229 304.547,289.400 304.162 C 288.226 304.002,288.231 304.011,289.600 304.569 M297.000 306.400 C 297.136 306.620,297.732 306.787,298.324 306.772 C 299.285 306.747,299.314 306.707,298.600 306.400 C 297.489 305.922,296.705 305.922,297.000 306.400 M300.600 307.200 C 300.736 307.420,301.332 307.587,301.924 307.572 C 302.885 307.547,302.914 307.507,302.200 307.200 C 301.089 306.722,300.305 306.722,300.600 307.200 M304.746 308.216 C 305.486 308.537,306.691 308.800,307.422 308.800 C 308.154 308.800,308.864 308.980,309.000 309.200 C 309.136 309.420,309.912 309.588,310.724 309.574 C 312.307 309.545,312.320 309.550,306.094 308.019 C 303.726 307.437,303.147 307.522,304.746 308.216 M312.800 310.000 C 313.130 310.213,313.940 310.373,314.600 310.354 C 315.776 310.321,315.780 310.314,314.800 310.000 C 313.270 309.510,312.042 309.510,312.800 310.000 M316.600 310.800 C 316.736 311.020,317.332 311.187,317.924 311.172 C 318.885 311.147,318.914 311.107,318.200 310.800 C 317.089 310.322,316.305 310.322,316.600 310.800 M320.400 311.647 C 321.466 312.142,324.373 312.738,327.000 313.000 L 328.600 313.160 327.200 312.824 C 321.240 311.395,319.035 311.013,320.400 311.647 M329.000 313.600 C 329.136 313.820,329.912 313.982,330.724 313.960 C 332.050 313.924,332.098 313.888,331.200 313.600 C 329.755 313.137,328.714 313.137,329.000 313.600 M333.200 314.400 C 333.530 314.613,334.250 314.778,334.800 314.766 C 335.716 314.746,335.733 314.715,335.000 314.400 C 333.816 313.891,332.413 313.891,333.200 314.400 M338.200 315.376 C 339.080 315.686,340.374 315.952,341.076 315.969 C 341.778 315.986,342.464 316.180,342.600 316.400 C 342.736 316.620,343.568 316.800,344.450 316.800 C 345.331 316.800,346.409 316.991,346.845 317.224 C 347.280 317.457,348.214 317.592,348.918 317.524 C 350.145 317.405,346.498 316.496,341.200 315.600 C 340.210 315.432,338.770 315.187,338.000 315.055 C 336.618 314.817,336.620 314.821,338.200 315.376 M350.666 318.172 C 350.545 318.487,349.624 318.867,348.618 319.018 C 347.613 319.169,346.692 319.452,346.571 319.646 C 346.451 319.841,345.881 320.000,345.305 320.000 C 344.728 320.000,343.704 320.168,343.028 320.373 C 342.353 320.578,341.080 320.928,340.200 321.151 C 339.320 321.374,337.160 321.948,335.400 322.428 C 333.640 322.907,331.480 323.377,330.600 323.472 C 329.720 323.567,328.640 323.805,328.200 324.000 C 327.760 324.195,326.680 324.434,325.800 324.530 C 322.768 324.864,318.999 325.647,318.620 326.023 C 318.411 326.230,317.412 326.400,316.400 326.400 C 315.388 326.400,314.389 326.564,314.180 326.765 C 313.971 326.965,312.810 327.228,311.600 327.348 C 310.390 327.469,308.230 327.737,306.800 327.946 C 305.370 328.154,302.850 328.521,301.200 328.760 C 299.550 328.999,297.750 329.365,297.200 329.572 C 296.650 329.780,295.030 330.045,293.600 330.162 C 292.170 330.280,289.290 330.572,287.200 330.812 C 279.049 331.747,277.213 331.932,271.817 332.358 C 268.746 332.601,265.956 332.884,265.617 332.989 C 265.278 333.093,262.840 333.281,260.200 333.407 C 257.560 333.533,254.230 333.804,252.800 334.010 C 251.370 334.216,249.165 334.388,247.900 334.392 C 245.967 334.399,245.605 334.512,245.632 335.100 C 245.650 335.518,245.744 335.599,245.865 335.300 C 246.012 334.936,247.502 334.797,251.333 334.790 C 254.230 334.785,257.320 334.604,258.200 334.387 C 259.080 334.171,260.970 333.984,262.400 333.973 C 263.830 333.962,266.350 333.772,268.000 333.551 C 269.650 333.330,272.620 333.066,274.600 332.964 C 276.580 332.863,278.470 332.668,278.800 332.531 C 279.130 332.395,281.020 332.125,283.000 331.932 C 293.352 330.924,299.159 330.159,300.569 329.617 C 301.212 329.370,301.944 329.247,302.196 329.343 C 302.448 329.440,303.452 329.343,304.427 329.127 C 305.402 328.911,307.280 328.576,308.600 328.383 C 309.920 328.190,312.035 327.845,313.300 327.616 C 314.565 327.387,316.545 327.040,317.700 326.844 C 322.673 326.002,325.025 325.484,325.380 325.153 C 325.589 324.959,326.613 324.800,327.656 324.800 C 328.699 324.800,329.664 324.620,329.800 324.400 C 329.936 324.180,330.836 324.000,331.800 324.000 C 332.764 324.000,333.664 323.820,333.800 323.600 C 333.936 323.380,334.631 323.200,335.344 323.200 C 336.057 323.200,336.824 323.016,337.049 322.791 C 337.274 322.566,338.133 322.295,338.958 322.190 C 339.782 322.084,340.792 321.818,341.202 321.599 C 341.612 321.379,342.489 321.200,343.150 321.200 C 343.812 321.200,344.452 321.039,344.574 320.842 C 344.695 320.645,345.471 320.390,346.297 320.275 C 349.933 319.768,353.526 318.459,352.927 317.861 C 352.446 317.379,350.888 317.594,350.666 318.172 " stroke="none" fill="#ffffff" fill-rule="evenodd"></path></g></svg>
