<svg xmlns="http://www.w3.org/2000/svg" xmlns:xlink="http://www.w3.org/1999/xlink" version="1.1" x="0px" y="0px" viewBox="0 0 110 137.5" enable-background="new 0 0 110 110" xml:space="preserve"><path fill="#15ace4" d="M105.422,21.685l0.01-0.008l-0.034-0.044c-0.973-2.006-3.022-3.396-5.397-3.396H10c-2.395,0-4.46,1.413-5.422,3.447  l-0.012,0.015l0.003,0.003C4.208,22.474,4,23.33,4,24.237v61.525c0,3.309,2.691,6,6,6h90c3.309,0,6-2.691,6-6V24.237  C106,23.323,105.789,22.46,105.422,21.685z M100,20.237c1.039,0,1.978,0.407,2.689,1.059L56.713,57.71  c-0.922,0.73-2.539,0.73-3.461,0L7.296,21.309c0.713-0.659,1.658-1.071,2.704-1.071H100z M104,85.763c0,2.206-1.794,4-4,4H10  c-2.206,0-4-1.794-4-4V24.237c0-0.433,0.087-0.842,0.214-1.232L52.01,59.278c0.834,0.66,1.903,0.99,2.973,0.99s2.14-0.33,2.973-0.99  l45.824-36.293c0.132,0.396,0.221,0.812,0.221,1.252V85.763z"/></svg>
