<svg xmlns:dc="http://purl.org/dc/elements/1.1/" xmlns:cc="http://creativecommons.org/ns#" xmlns:rdf="http://www.w3.org/1999/02/22-rdf-syntax-ns#" xmlns:svg="http://www.w3.org/2000/svg" xmlns="http://www.w3.org/2000/svg" xmlns:sodipodi="http://sodipodi.sourceforge.net/DTD/sodipodi-0.dtd" xmlns:inkscape="http://www.inkscape.org/namespaces/inkscape" version="1.1" x="0px" y="0px" viewBox="0 0 100 125"><g transform="translate(0,-952.36218)"><path style="text-indent:0;text-transform:none;direction:ltr;block-progression:tb;baseline-shift:baseline;color:#000000;enable-background:accumulate;" d="m 12.721709,962.36428 c -1.29261,0.005 -2.47117,0.60445 -3.3436196,1.46871 -0.81809,1.1078 -1.42733,2.21822 -1.37495,3.34364 0.80384,23.73649 8.2739796,42.61577 21.7179396,55.49817 13.456,12.894 32.83572,19.7286 57.21661,19.6869 0.0208,6e-4 0.0417,6e-4 0.0625,0 1.28571,-0.075 2.45757,-0.6898 3.34362,-1.5625 0.88606,-0.8726 1.52575,-2.0276 1.5312,-3.3123 0.0415,-5.6867 0.084,-11.3774 0.12499,-17.062 -0.0362,-1.2465 -0.67482,-2.3757 -1.56244,-3.2186 -0.88762,-0.8429 -2.07951,-1.4478 -3.37487,-1.4375 -5.58313,0.022 -12.77905,-1.8832 -18.53056,-3.3123 -0.32751,-0.082 -0.69437,0.016 -0.93747,0.2499 l -10.65585,10.3747 c -13.18195,-7.7637 -18.68071,-13.1065 -26.65525,-25.90538 l 10.6246,-10.34342 c 0.25553,-0.2427 0.36708,-0.62691 0.28124,-0.96872 -1.51878,-5.68547 -4.24538,-13.42796 -3.78111,-19.46813 -0.20785,-1.16782 -1.2604,-2.22558 -2.03117,-2.81241 -0.92824,-0.69492 -2.11666,-1.25998 -3.46862,-1.21871 -6.68176,-10e-5 -13.46787,8e-5 -19.18679,-5e-5 z m 0,1.99994 19.18679,0 c 0.90654,0.0272 1.64136,0.45458 2.28111,0.81247 0.64368,0.48189 1.10264,1.11858 1.24995,1.43746 -0.37939,6.45869 2.174,13.78704 3.65612,19.18688 l -10.8121,10.49967 c -0.32763,0.31462 -0.39634,0.86437 -0.15624,1.25001 8.464,13.71989 14.33234,19.42499 28.43644,27.65529 0.37331,0.2094 0.88101,0.1426 1.18745,-0.1563 l 10.8434,-10.5309 c 5.63964,1.41 12.63185,3.2733 18.4993,3.2499 0.64157,0 1.39446,0.3297 1.96868,0.875 0.56641,0.5379 0.91265,1.2313 0.93747,1.7812 -0.0429,5.9409 -0.0882,11.9755 -0.125,17.0619 -0.003,0.5995 -0.35575,1.302 -0.93746,1.8749 -0.58172,0.5729 -1.37426,0.9599 -2.06243,1 -23.97472,0.029 -42.77119,-6.6598 -55.77916,-19.1244 -13.01959,-12.4757 -20.31309,-30.80119 -21.09296,-54.18567 0.0488,-0.78528 0.43958,-1.29298 0.78122,-1.78114 0.5758,-0.57081 1.32475,-0.72406 1.93742,-0.90627 z" fill="#15ace4" fill-opacity="1" stroke="none" marker="none" visibility="visible" display="inline" overflow="visible"/></g></svg>
